SplineFontDB: 3.0
FontName: Shabnam-Thin
FullName: Shabnam Thin
FamilyName: Shabnam Thin
Weight: Thin
Copyright: Copyright (c) 2003 by Bitstream, Inc. All Rights Reserved.\nDejaVu changes are in public domain\nChanges by Saber Rastikerdar are in public domain.\nNon-Arabic(Latin) glyphs and data in extended version are imported from Roboto font under the Apache License, Version 2.0.
Version: 5.0.1
ItalicAngle: 0
UnderlinePosition: -500
UnderlineWidth: 100
Ascent: 1638
Descent: 410
InvalidEm: 0
LayerCount: 2
Layer: 0 0 "Back" 1
Layer: 1 0 "Fore" 0
PreferredKerning: 4
XUID: [1021 502 1027637223 7997785]
UniqueID: 4119851
UseUniqueID: 1
FSType: 0
OS2Version: 1
OS2_WeightWidthSlopeOnly: 0
OS2_UseTypoMetrics: 1
CreationTime: 1431850356
ModificationTime: 1573911150
PfmFamily: 33
TTFWeight: 100
TTFWidth: 5
LineGap: 0
VLineGap: 0
Panose: 2 11 6 3 3 8 4 2 2 4
OS2TypoAscent: 1900
OS2TypoAOffset: 0
OS2TypoDescent: -900
OS2TypoDOffset: 0
OS2TypoLinegap: 0
OS2WinAscent: 1900
OS2WinAOffset: 0
OS2WinDescent: 900
OS2WinDOffset: 0
HheadAscent: 1900
HheadAOffset: 0
HheadDescent: -900
HheadDOffset: 0
OS2SubXSize: 1331
OS2SubYSize: 1433
OS2SubXOff: 0
OS2SubYOff: 286
OS2SupXSize: 1331
OS2SupYSize: 1433
OS2SupXOff: 0
OS2SupYOff: 983
OS2StrikeYSize: 102
OS2StrikeYPos: 530
OS2CapHeight: 1638
OS2XHeight: 1082
OS2Vendor: '    '
OS2CodePages: 00000041.20080000
OS2UnicodeRanges: 80002003.80000000.00000008.00000000
Lookup: 1 9 0 "Single Substitution 1" { "Single Substitution 1 subtable"  } []
Lookup: 1 9 0 "'fina' Terminal Forms in Arabic lookup 9" { "'fina' Terminal Forms in Arabic lookup 9 subtable"  } ['fina' ('DFLT' <'dflt' > 'arab' <'FAR ' 'KUR ' 'URD ' 'dflt' > ) ]
Lookup: 1 9 0 "'medi' Medial Forms in Arabic lookup 11" { "'medi' Medial Forms in Arabic lookup 11 subtable"  } ['medi' ('DFLT' <'dflt' > 'arab' <'FAR ' 'KUR ' 'URD ' 'dflt' > ) ]

StartChar: exclam
Encoding: 33 33 1
GlifName: exclam
Width: 632
VWidth: 2732
GlyphClass: 2
Flags: HW
LayerCount: 2
Fore
SplineSet
213 104 m 0
 213 160.577148438 259.939453125 208 316 208 c 0
 372.061523438 208 419 160.580078125 419 104 c 0
 419 47.63671875 372.361328125 1 316 1 c 0
 258.073242188 1 213 44.5576171875 213 104 c 0
251.837890625 1266 m 5
 384.1953125 1266 l 5
 370.784179688 432 l 1
 266.185546875 432 l 1
 251.837890625 1266 l 5
EndSplineSet
EndChar

StartChar: period
Encoding: 46 46 2
GlifName: period
Width: 632
VWidth: 2732
GlyphClass: 2
Flags: HW
LayerCount: 2
Fore
SplineSet
213 104 m 0
 213 160.577148438 259.939453125 208 316 208 c 0
 372.061523438 208 419 160.580078125 419 104 c 0
 419 47.63671875 372.361328125 1 316 1 c 0
 258.073242188 1 213 44.5576171875 213 104 c 0
EndSplineSet
EndChar

StartChar: colon
Encoding: 58 58 3
GlifName: colon
Width: 632
VWidth: 2732
GlyphClass: 2
Flags: HW
LayerCount: 2
Fore
SplineSet
213 724 m 0
 213 780.577148438 259.939453125 828 316 828 c 0
 372.061523438 828 419 780.580078125 419 724 c 0
 419 667.63671875 372.361328125 621 316 621 c 0
 258.073242188 621 213 664.557617188 213 724 c 0
213 104 m 0
 213 160.577148438 259.939453125 208 316 208 c 0
 372.061523438 208 419 160.580078125 419 104 c 0
 419 47.63671875 372.361328125 1 316 1 c 0
 258.073242188 1 213 44.5576171875 213 104 c 0
EndSplineSet
EndChar

StartChar: uni060C
Encoding: 1548 1548 5
GlifName: afii57388
Width: 669
VWidth: 2740
GlyphClass: 2
Flags: HW
LayerCount: 2
Fore
SplineSet
457.163085938 549.176757812 m 1
 369.719726562 464.999023438 311 380.467773438 311 255 c 2
 311 225 l 1
 341 225 l 2
 427.375976562 225 446 196.67578125 446 121 c 0
 446 46.9638671875 412.2734375 9 341 9 c 0
 247.216796875 9 213 57.2685546875 213 153 c 0
 213 326.872070312 298.27734375 464.166015625 428.990234375 571.639648438 c 1
 457.163085938 549.176757812 l 1
EndSplineSet
EndChar

StartChar: uni0615
Encoding: 1557 1557 6
GlifName: uni0615
Width: -29
VWidth: 2712
GlyphClass: 4
Flags: HW
AnchorPoint: "Anchor-10" 658.199 1622.46 mark 0
AnchorPoint: "Anchor-9" 658.199 1622.46 mark 0
AnchorPoint: "Anchor-1" 672.366 2445.86 basemark 0
AnchorPoint: "Anchor-1" 658.199 1622.46 mark 0
LayerCount: 2
Fore
SplineSet
922.5 1918 m 0
 922.5 1972.54218546 892.404707701 2002.5 837 2002.5 c 0
 759.706067151 2002.5 656.515248558 1927.68538571 530.922115164 1791.07600851 c 2
 519.360241841 1778.5 l 1
 536.443359375 1778.5 l 1
 678 1778.5 l 2
 787.107436735 1778.5 922.5 1812.62049131 922.5 1918 c 0
542.620193711 1881.72981659 m 2
 650.977495014 2004.99038663 751.932604399 2068.5 841 2068.5 c 0
 936.507265731 2068.5 981.5 2023.58060437 981.5 1927 c 0
 981.5 1791.42809603 881.493833021 1721.5 668 1721.5 c 2
 364.5 1721.5 l 1
 364.5 1778.5 l 1
 465 1778.5 l 1
 472.5 1778.5 l 1
 472.5 1786 l 1
 472.5 2310.37567432 l 1
 530.478719277 2309.6232882 l 1
 529.487325294 1886.69922164 l 1
 529.440532066 1866.73744793 l 1
 542.620193711 1881.72981659 l 2
EndSplineSet
EndChar

StartChar: uni061B
Encoding: 1563 1563 7
GlifName: uni061B_
Width: 669
VWidth: 2740
GlyphClass: 2
Flags: HW
LayerCount: 2
Fore
SplineSet
241 104 m 0
 241 160.577148438 287.939453125 208 344 208 c 0
 400.061523438 208 447 160.580078125 447 104 c 0
 447 47.63671875 400.361328125 1 344 1 c 0
 286.073242188 1 241 44.5576171875 241 104 c 0
457.10546875 973.223632812 m 1
 369.5234375 889.23046875 311 804.653320312 311 679 c 2
 311 649 l 1
 341 649 l 2
 427.017578125 649 446 620.215820312 446 545 c 0
 446 470.963867188 412.2734375 433 341 433 c 0
 247.216796875 433 213 481.268554688 213 577 c 0
 213 750.872070312 298.27734375 888.166015625 428.990234375 995.639648438 c 1
 457.10546875 973.223632812 l 1
EndSplineSet
EndChar

StartChar: uni061F
Encoding: 1567 1567 8
GlifName: uni061F_
Width: 924
VWidth: 2732
GlyphClass: 2
Flags: HW
LayerCount: 2
Fore
SplineSet
422 104 m 0
 422 160.577148438 468.939453125 208 525 208 c 0
 581.061523438 208 628 160.580078125 628 104 c 0
 628 47.63671875 581.361328125 1 525 1 c 0
 467.073242188 1 422 44.5576171875 422 104 c 0
129 951 m 4
 129 1146.53222656 287.01171875 1276 469 1276 c 4
 694.793945312 1276 786.662109375 1170.2265625 795.387695312 941 c 5
 698.96875 941 l 5
 690.576171875 1071.37402344 624.047851562 1156 480 1156 c 4
 347.627929688 1156 250 1077.8125 250 942 c 4
 250 730.428710938 565.2734375 770.861328125 586.778320312 432 c 5
 461.958007812 432 l 1
 439.205078125 742.870117188 129 678 129 951 c 4
EndSplineSet
EndChar

StartChar: uni0621
Encoding: 1569 1569 9
GlifName: uni0621
Width: 807
VWidth: 2551
GlyphClass: 2
Flags: HW
AnchorPoint: "Anchor-7" 437 -84 basechar 0
AnchorPoint: "Anchor-10" 394 1040 basechar 0
LayerCount: 2
Fore
SplineSet
445 711 m 0
 495.137695312 711 546.0625 700.690429688 585 686.025390625 c 1
 585 598.903320312 l 1
 539.571289062 609.923828125 495.84375 615 454 615 c 0
 334.607421875 615 245 553.264648438 245 444 c 0
 245 291.556640625 405.76171875 258 498 258 c 0
 544.396484375 258 595.286132812 271.060546875 648.322265625 294.709960938 c 1
 676.284179688 201.09765625 l 1
 184.317382812 13.337890625 l 1
 148.815429688 96.978515625 l 1
 400 191 l 5
 249.723632812 215.615234375 144 276.312095779 144 454 c 0
 144 602.065429688 255.450195312 711 445 711 c 0
EndSplineSet
EndChar

StartChar: uni0627
Encoding: 1575 1575 15
GlifName: uni0627
Width: 459
VWidth: 2551
GlyphClass: 2
Flags: HW
AnchorPoint: "Anchor-10" 225 1433 basechar 0
AnchorPoint: "Anchor-7" 228 -241 basechar 0
LayerCount: 2
Fore
SplineSet
180 1274 m 1
 286 1274 l 1
 286 1 l 1
 180 1 l 1
 180 1274 l 1
EndSplineSet
Substitution2: "'fina' Terminal Forms in Arabic lookup 9 subtable" uniFE8E
EndChar

StartChar: uni062D
Encoding: 1581 1581 21
GlifName: uni062D_
Width: 1314
VWidth: 2551
GlyphClass: 2
Flags: HW
AnchorPoint: "Anchor-10" 657.5 1002.5 basechar 0
AnchorPoint: "Anchor-7" 743.334 -905.653 basechar 0
LayerCount: 2
Fore
SplineSet
941.518554688 458.252929688 m 1
 809.453125 531.2890625 l 2
 720.666992188 579.811523438 637.713867188 607 554 607 c 0
 457.801757812 607 386.732421875 571.369140625 305.348632812 507.498046875 c 2
 256.435546875 468.229492188 l 1
 180.803710938 553.067382812 l 1
 218.390625 585.108398438 l 2
 335.79296875 683.922851562 431.124023438 730 548 730 c 0
 635.920898438 730 725.552734375 703.967773438 819.012695312 650.01171875 c 2
 1008.07421875 540.9765625 l 2
 1069.36816406 505.822265625 1132.17480469 482.448242188 1183 469.252929688 c 1
 1183 337.208007812 l 1
 812.124023438 286.05078125 242 175.430664062 242 -222 c 0
 242 -472.099609375 445.4140625 -579 802 -579 c 2
 1184 -579 l 1
 1184 -695 l 1
 790 -695 l 2
 382.30078125 -695 130 -546.828125 130 -225 c 0
 130 101.54296875 387.389648438 311.651367188 931.931640625 402.408203125 c 2
 1016.89355469 416.568359375 l 1
 941.518554688 458.252929688 l 1
EndSplineSet
Substitution2: "'fina' Terminal Forms in Arabic lookup 9 subtable" uniFEA2
Substitution2: "'medi' Medial Forms in Arabic lookup 11 subtable" uniFEA4
Substitution2: "'init' Initial Forms in Arabic lookup 13 subtable" uniFEA3
EndChar

StartChar: uni062F
Encoding: 1583 1583 23
GlifName: uni062F_
Width: 1004
VWidth: 2551
GlyphClass: 2
Flags: HW
AnchorPoint: "Anchor-10" 448 1136 basechar 0
AnchorPoint: "Anchor-7" 424 -255 basechar 0
LayerCount: 2
Fore
SplineSet
464 0 m 2
 130 0 l 1
 130 120 l 1
 465 120 l 2
 652.2265625 120 759 167.067382812 759 270 c 0
 759 334.2734375 717.09765625 404.010742188 654.66796875 475.650390625 c 2
 391.92578125 778.7421875 l 1
 472.567382812 869.381835938 l 1
 748.174804688 547.53125 l 2
 832.055664062 449.189453125 874 348.25390625 874 264 c 0
 874 120.662109375 756.71875 0 464 0 c 2
EndSplineSet
Substitution2: "'fina' Terminal Forms in Arabic lookup 9 subtable" uniFEAA
EndChar

StartChar: uni0631
Encoding: 1585 1585 25
GlifName: uni0631
Width: 756
VWidth: 2551
GlyphClass: 2
Flags: HW
AnchorPoint: "Anchor-7" 297 -649 basechar 0
AnchorPoint: "Anchor-10" 511 923 basechar 0
LayerCount: 2
Fore
SplineSet
84 -354 m 2
 355.44921875 -354 512 -212.4921875 512 41 c 2
 512 545.171875 l 1
 626 545.827148438 l 1
 626 41 l 2
 626 -283.284179688 445.532226562 -465.107421875 85.6708984375 -468.001953125 c 2
 44 -468.580078125 l 1
 44 -354 l 1
 84 -354 l 2
EndSplineSet
PairPos2: "'kern' Horizontal Kerning lookup 15-1" uniFEE7 dx=-178 dy=0 dh=-178 dv=0 dx=0 dy=0 dh=0 dv=0
PairPos2: "'kern' Horizontal Kerning lookup 15-2" uni0698 dx=-40 dy=0 dh=-40 dv=0 dx=0 dy=0 dh=0 dv=0
PairPos2: "'kern' Horizontal Kerning lookup 15-2" uni0648 dx=-30 dy=0 dh=-30 dv=0 dx=0 dy=0 dh=0 dv=0
PairPos2: "'kern' Horizontal Kerning lookup 15-2" uni0624 dx=-30 dy=0 dh=-30 dv=0 dx=0 dy=0 dh=0 dv=0
PairPos2: "'kern' Horizontal Kerning lookup 15-2" uni0632 dx=-30 dy=0 dh=-30 dv=0 dx=0 dy=0 dh=0 dv=0
PairPos2: "'kern' Horizontal Kerning lookup 15-2" uni0631 dx=-30 dy=0 dh=-30 dv=0 dx=0 dy=0 dh=0 dv=0
PairPos2: "'kern' Horizontal Kerning lookup 15-2" uniFB90 dx=-180 dy=0 dh=-180 dv=0 dx=0 dy=0 dh=0 dv=0
PairPos2: "'kern' Horizontal Kerning lookup 15-2" uniFB8E dx=-180 dy=0 dh=-180 dv=0 dx=0 dy=0 dh=0 dv=0
PairPos2: "'kern' Horizontal Kerning lookup 15-2" uni06A9 dx=-180 dy=0 dh=-180 dv=0 dx=0 dy=0 dh=0 dv=0
PairPos2: "'kern' Horizontal Kerning lookup 15-2" uniFEEB dx=-178 dy=0 dh=-178 dv=0 dx=0 dy=0 dh=0 dv=0
PairPos2: "'kern' Horizontal Kerning lookup 15-2" uni0647 dx=-178 dy=0 dh=-178 dv=0 dx=0 dy=0 dh=0 dv=0
PairPos2: "'kern' Horizontal Kerning lookup 15-2" uniFEE3 dx=-178 dy=0 dh=-178 dv=0 dx=0 dy=0 dh=0 dv=0
PairPos2: "'kern' Horizontal Kerning lookup 15-2" uni0645 dx=-178 dy=0 dh=-178 dv=0 dx=0 dy=0 dh=0 dv=0
PairPos2: "'kern' Horizontal Kerning lookup 15-2" uniFEFB dx=-143 dy=0 dh=-143 dv=0 dx=0 dy=0 dh=0 dv=0
PairPos2: "'kern' Horizontal Kerning lookup 15-2" uniFEDF dx=-143 dy=0 dh=-143 dv=0 dx=0 dy=0 dh=0 dv=0
PairPos2: "'kern' Horizontal Kerning lookup 15-2" uni0644 dx=-60 dy=0 dh=-60 dv=0 dx=0 dy=0 dh=0 dv=0
PairPos2: "'kern' Horizontal Kerning lookup 15-2" uniFEDB dx=-180 dy=0 dh=-180 dv=0 dx=0 dy=0 dh=0 dv=0
PairPos2: "'kern' Horizontal Kerning lookup 15-2" uni0643 dx=-143 dy=0 dh=-143 dv=0 dx=0 dy=0 dh=0 dv=0
PairPos2: "'kern' Horizontal Kerning lookup 15-2" uniFED7 dx=-178 dy=0 dh=-178 dv=0 dx=0 dy=0 dh=0 dv=0
PairPos2: "'kern' Horizontal Kerning lookup 15-2" uniFED3 dx=-178 dy=0 dh=-178 dv=0 dx=0 dy=0 dh=0 dv=0
PairPos2: "'kern' Horizontal Kerning lookup 15-2" uni0641 dx=-178 dy=0 dh=-178 dv=0 dx=0 dy=0 dh=0 dv=0
PairPos2: "'kern' Horizontal Kerning lookup 15-2" uniFECF dx=-178 dy=0 dh=-178 dv=0 dx=0 dy=0 dh=0 dv=0
PairPos2: "'kern' Horizontal Kerning lookup 15-2" uniFECB dx=-178 dy=0 dh=-178 dv=0 dx=0 dy=0 dh=0 dv=0
PairPos2: "'kern' Horizontal Kerning lookup 15-2" uniFEC7 dx=-178 dy=0 dh=-178 dv=0 dx=0 dy=0 dh=0 dv=0
PairPos2: "'kern' Horizontal Kerning lookup 15-2" uni0638 dx=-178 dy=0 dh=-178 dv=0 dx=0 dy=0 dh=0 dv=0
PairPos2: "'kern' Horizontal Kerning lookup 15-2" uniFEC3 dx=-178 dy=0 dh=-178 dv=0 dx=0 dy=0 dh=0 dv=0
PairPos2: "'kern' Horizontal Kerning lookup 15-2" uni0637 dx=-178 dy=0 dh=-178 dv=0 dx=0 dy=0 dh=0 dv=0
PairPos2: "'kern' Horizontal Kerning lookup 15-2" uniFEBF dx=-178 dy=0 dh=-178 dv=0 dx=0 dy=0 dh=0 dv=0
PairPos2: "'kern' Horizontal Kerning lookup 15-2" uni0636 dx=-178 dy=0 dh=-178 dv=0 dx=0 dy=0 dh=0 dv=0
PairPos2: "'kern' Horizontal Kerning lookup 15-2" uniFEBB dx=-178 dy=0 dh=-178 dv=0 dx=0 dy=0 dh=0 dv=0
PairPos2: "'kern' Horizontal Kerning lookup 15-2" uni0635 dx=-178 dy=0 dh=-178 dv=0 dx=0 dy=0 dh=0 dv=0
PairPos2: "'kern' Horizontal Kerning lookup 15-2" uniFEB7 dx=-178 dy=0 dh=-178 dv=0 dx=0 dy=0 dh=0 dv=0
PairPos2: "'kern' Horizontal Kerning lookup 15-2" uni0634 dx=-178 dy=0 dh=-178 dv=0 dx=0 dy=0 dh=0 dv=0
PairPos2: "'kern' Horizontal Kerning lookup 15-2" uniFEB3 dx=-178 dy=0 dh=-178 dv=0 dx=0 dy=0 dh=0 dv=0
PairPos2: "'kern' Horizontal Kerning lookup 15-2" uni0633 dx=-178 dy=0 dh=-178 dv=0 dx=0 dy=0 dh=0 dv=0
PairPos2: "'kern' Horizontal Kerning lookup 15-2" uni0630 dx=-178 dy=0 dh=-178 dv=0 dx=0 dy=0 dh=0 dv=0
PairPos2: "'kern' Horizontal Kerning lookup 15-2" uni062F dx=-178 dy=0 dh=-178 dv=0 dx=0 dy=0 dh=0 dv=0
PairPos2: "'kern' Horizontal Kerning lookup 15-2" uniFEA7 dx=-178 dy=0 dh=-178 dv=0 dx=0 dy=0 dh=0 dv=0
PairPos2: "'kern' Horizontal Kerning lookup 15-2" uniFEA3 dx=-178 dy=0 dh=-178 dv=0 dx=0 dy=0 dh=0 dv=0
PairPos2: "'kern' Horizontal Kerning lookup 15-2" uniFE9F dx=-178 dy=0 dh=-178 dv=0 dx=0 dy=0 dh=0 dv=0
PairPos2: "'kern' Horizontal Kerning lookup 15-2" uniFE9B dx=-178 dy=0 dh=-178 dv=0 dx=0 dy=0 dh=0 dv=0
PairPos2: "'kern' Horizontal Kerning lookup 15-2" uni062B dx=-178 dy=0 dh=-178 dv=0 dx=0 dy=0 dh=0 dv=0
PairPos2: "'kern' Horizontal Kerning lookup 15-2" uniFE97 dx=-178 dy=0 dh=-178 dv=0 dx=0 dy=0 dh=0 dv=0
PairPos2: "'kern' Horizontal Kerning lookup 15-2" uni062A dx=-178 dy=0 dh=-178 dv=0 dx=0 dy=0 dh=0 dv=0
PairPos2: "'kern' Horizontal Kerning lookup 15-2" uni0629 dx=-178 dy=0 dh=-178 dv=0 dx=0 dy=0 dh=0 dv=0
PairPos2: "'kern' Horizontal Kerning lookup 15-2" uni0628 dx=-178 dy=0 dh=-178 dv=0 dx=0 dy=0 dh=0 dv=0
PairPos2: "'kern' Horizontal Kerning lookup 15-2" uni0627 dx=-163 dy=0 dh=-163 dv=0 dx=0 dy=0 dh=0 dv=0
PairPos2: "'kern' Horizontal Kerning lookup 15-2" uni0623 dx=-163 dy=0 dh=-163 dv=0 dx=0 dy=0 dh=0 dv=0
PairPos2: "'kern' Horizontal Kerning lookup 15-2" uni0622 dx=-163 dy=0 dh=-163 dv=0 dx=0 dy=0 dh=0 dv=0
PairPos2: "'kern' Horizontal Kerning lookup 15-2" uni0621 dx=-178 dy=0 dh=-178 dv=0 dx=0 dy=0 dh=0 dv=0
PairPos2: "'kern' Horizontal Kerning lookup 15-2" uniFB94 dx=-180 dy=0 dh=-180 dv=0 dx=0 dy=0 dh=0 dv=0
PairPos2: "'kern' Horizontal Kerning lookup 15-2" uniFB92 dx=-180 dy=0 dh=-180 dv=0 dx=0 dy=0 dh=0 dv=0
PairPos2: "'kern' Horizontal Kerning lookup 15-2" uni06AF dx=-180 dy=0 dh=-180 dv=0 dx=0 dy=0 dh=0 dv=0
PairPos2: "'kern' Horizontal Kerning lookup 15-2" uni067E dx=-178 dy=0 dh=-178 dv=0 dx=0 dy=0 dh=0 dv=0
PairPos2: "'kern' Horizontal Kerning lookup 15-2" uni0640 dx=-178 dy=0 dh=-178 dv=0 dx=0 dy=0 dh=0 dv=0
PairPos2: "'kern' Horizontal Kerning lookup 15-2" uniFE8B dx=-178 dy=0 dh=-178 dv=0 dx=0 dy=0 dh=0 dv=0
PairPos2: "'kern' Horizontal Kerning lookup 15-2" uniFB7C dx=-120 dy=0 dh=-120 dv=0 dx=0 dy=0 dh=0 dv=0
PairPos2: "'kern' Horizontal Kerning lookup 15-2" uniFE91 dx=-60 dy=0 dh=-60 dv=0 dx=0 dy=0 dh=0 dv=0
PairPos2: "'kern' Horizontal Kerning lookup 15-5" uni06C0 dx=-178 dy=0 dh=-178 dv=0 dx=0 dy=0 dh=0 dv=0
Substitution2: "'fina' Terminal Forms in Arabic lookup 9 subtable" uniFEAE
EndChar

StartChar: uni0633
Encoding: 1587 1587 27
GlifName: uni0633
Width: 2479
VWidth: 2551
GlyphClass: 2
Flags: HW
AnchorPoint: "Anchor-7" 688 -698 basechar 0
AnchorPoint: "Anchor-10" 1775 1034 basechar 0
LayerCount: 2
Fore
SplineSet
1307 367 m 2
 1307 208.994140625 1385.45410156 119.978515625 1527.19921875 119.978515625 c 0
 1659.1796875 119.978515625 1735 203.366210938 1735 342.942382812 c 2
 1735.88574219 574 l 1
 1846.11523438 574 l 1
 1847 344.826171875 l 2
 1848.1015625 202.7578125 1922.88671875 120.98828125 2058.27539062 120.98828125 c 0
 2175.95507812 120.98828125 2234 206.06640625 2234 341 c 2
 2234 606 l 1
 2349 606 l 1
 2349 333 l 2
 2349 112.428710938 2245.93554688 0 2064 0 c 0
 1941.7890625 0 1873.38769531 41.2978515625 1821.64746094 126.563476562 c 2
 1794.99804688 170.479492188 l 1
 1769.84277344 125.690429688 l 2
 1721.90429688 40.3369140625 1642.140625 0 1521.17871094 0 c 0
 1395.28075531 1.49853033383 1351.27050781 49.97265625 1295 125 c 5
 1295 55 l 1
 1295 22 l 2
 1295 -295.364257812 1119.40722656 -449 744 -449 c 2
 693 -449 l 2
 311.276367188 -449 130 -281.052734375 130 71 c 2
 130 382 l 1
 244 382 l 1
 244 72 l 2
 244 -192.975585938 403.681640625 -330 693 -330 c 2
 744 -330 l 2
 1029.78027344 -330 1191 -214.450195312 1191 17 c 2
 1191 571 l 1
 1307 571 l 1
 1307 367 l 2
EndSplineSet
Substitution2: "'fina' Terminal Forms in Arabic lookup 9 subtable" uniFEB2
Substitution2: "'medi' Medial Forms in Arabic lookup 11 subtable" uniFEB4
Substitution2: "'init' Initial Forms in Arabic lookup 13 subtable" uniFEB3
EndChar

StartChar: uni0635
Encoding: 1589 1589 29
GlifName: uni0635
Width: 2505
VWidth: 2551
GlyphClass: 2
Flags: HW
AnchorPoint: "Anchor-10" 1977 1118 basechar 0
AnchorPoint: "Anchor-7" 688 -698 basechar 0
LayerCount: 2
Fore
SplineSet
1307 387 m 2
 1307 248.120117188 1353.04785156 159.211914062 1438.57714844 143.494140625 c 2
 1461.78417969 139.229492188 l 1
 1471.39746094 160.778320312 l 2
 1637.04980469 532.110351562 1788.25292969 715 2015 715 c 0
 2215.39746094 715 2375 544.365234375 2375 337 c 0
 2375 114.9921875 2213.83007812 0 1958 0 c 2
 1618 0 l 2
 1381.56816275 0 1365.65820312 40.298828125 1295 135.37890625 c 5
 1295 57 l 1
 1295 22 l 2
 1295 -295.364257812 1119.40722656 -449 744 -449 c 2
 693 -449 l 2
 311.276367188 -449 130 -281.052734375 130 71 c 2
 130 382 l 1
 244 382 l 1
 244 72 l 2
 244 -192.975585938 403.681640625 -330 693 -330 c 2
 744 -330 l 2
 1029.78027344 -330 1191 -214.450195312 1191 17 c 2
 1191 571 l 1
 1307 571 l 1
 1307 387 l 2
2260 317 m 0
 2260 472.313476562 2144.95019531 592 2004 592 c 0
 1847.84570312 592 1713.71875 436.48046875 1589.66894531 162.369140625 c 2
 1570.49414062 120 l 1
 1617 120 l 1
 1978 120 l 2
 2130.30761719 120 2260 169.01953125 2260 317 c 0
EndSplineSet
Substitution2: "'fina' Terminal Forms in Arabic lookup 9 subtable" uniFEBA
Substitution2: "'medi' Medial Forms in Arabic lookup 11 subtable" uniFEBC
Substitution2: "'init' Initial Forms in Arabic lookup 13 subtable" uniFEBB
EndChar

StartChar: uni0637
Encoding: 1591 1591 31
GlifName: uni0637
Width: 1358
VWidth: 2551
GlyphClass: 2
Flags: HW
AnchorPoint: "Anchor-7" 606 -268 basechar 0
AnchorPoint: "Anchor-10" 447 1433 basechar 0
LayerCount: 2
Fore
SplineSet
1113 317 m 0
 1113 471.817382812 998.06640625 592 857 592 c 0
 700.845703125 592 566.71875 436.48046875 442.668945312 162.369140625 c 2
 423.494140625 120 l 1
 470 120 l 1
 831 120 l 2
 983.393554688 120 1113 169.235351562 1113 317 c 0
399 316 m 1
 399 1275 l 1
 505 1275 l 1
 505 569 l 1
 505 490.161132812 l 1
 557.411132812 549.056640625 l 2
 651.328125 654.592773438 752.45703125 715 868 715 c 0
 1068.09570312 715 1228 544.803710938 1228 337 c 0
 1228 114.811523438 1066.98535156 0 811 0 c 2
 130 0 l 1
 130 120 l 1
 289 120 l 1
 309.073242188 120 l 1
 316.731445312 138.555664062 l 2
 342.008789062 199.803710938 368.46484375 247.846679688 395.833007812 302.583984375 c 2
 399 308.91796875 l 1
 399 316 l 1
EndSplineSet
Substitution2: "'fina' Terminal Forms in Arabic lookup 9 subtable" uniFEC2
Substitution2: "'medi' Medial Forms in Arabic lookup 11 subtable" uniFEC4
Substitution2: "'init' Initial Forms in Arabic lookup 13 subtable" uniFEC3
EndChar

StartChar: uni0639
Encoding: 1593 1593 33
GlifName: uni0639
Width: 1244
VWidth: 2551
GlyphClass: 2
Flags: HW
AnchorPoint: "Anchor-7" 743.334 -905.653 basechar 0
AnchorPoint: "Anchor-10" 739 1193 basechar 0
LayerCount: 2
Fore
SplineSet
130 -227 m 0
 130 1.7607421875 253.23046875 169.775390625 508.455078125 254.528320312 c 2
 554.580078125 269.845703125 l 1
 520.212890625 304.212890625 l 1
 518.212890625 306.212890625 l 1
 517.498046875 306.927734375 l 1
 516.736328125 307.59375 l 2
 435.4453125 378.606445312 396 466.541992188 396 552.870117188 c 0
 397.858398438 767.53125 544.013671875 908 761 908 c 0
 870.149414062 908 957.764648438 867.13671875 1030.83203125 784.340820312 c 1
 986.595703125 703.2421875 l 1
 920.180664062 756.38671875 845.657226562 783 765 783 c 0
 635.37890625 783 511 704.677734375 511 555 c 0
 511 460.784179688 573.380859375 372.206054688 683.197265625 309.90625 c 2
 690.083007812 306 l 1
 698 306 l 1
 699 306 l 1
 700.23046875 306 l 1
 701.45703125 306.100585938 l 2
 773.21875 311.999023438 852.4609375 314 939 314 c 2
 1077 314 l 1
 1077 193 l 1
 923 193 l 2
 486.260742188 193 242 49.951171875 242 -223 c 0
 242 -473.227539062 446.548828125 -579 802 -579 c 2
 1114 -579 l 1
 1114 -695 l 1
 790 -695 l 2
 387.291992188 -695 130 -546.090820312 130 -227 c 0
EndSplineSet
Substitution2: "'fina' Terminal Forms in Arabic lookup 9 subtable" uniFECA
Substitution2: "'medi' Medial Forms in Arabic lookup 11 subtable" uniFECC
Substitution2: "'init' Initial Forms in Arabic lookup 13 subtable" uniFECB
EndChar

StartChar: uni0640
Encoding: 1600 1600 35
GlifName: afii57440
Width: 250
VWidth: 2551
GlyphClass: 2
Flags: HW
AnchorPoint: "Anchor-10" 118 855 basechar 0
AnchorPoint: "Anchor-7" 130 -202 basechar 0
LayerCount: 2
Fore
SplineSet
254.547851562 120 m 6
 275 120 280 92.431640625 280 67 c 6
 280 56 l 6
 280 28.673828125 273 -2.28831951708e-15 254.314453125 0 c 6
 -4.314453125 0 l 2
 -25 0 -30 28.9482421875 -30 56 c 2
 -30 67 l 2
 -30 92.6611328125 -24 120 -4.5478515625 120 c 2
 254.547851562 120 l 6
EndSplineSet
EndChar

StartChar: uni0643
Encoding: 1603 1603 38
GlifName: uni0643
Width: 1889
VWidth: 2551
GlyphClass: 2
Flags: HW
AnchorPoint: "Anchor-7" 850 -263 basechar 0
AnchorPoint: "Anchor-10" 948.836 1245.23 basechar 0
LayerCount: 2
Fore
SplineSet
860.8359375 559.23046875 m 0
 941.530273438 559.23046875 1066.8359375 564.413085938 1066.8359375 668.23046875 c 0
 1066.8359375 818.584960938 801.7265625 721.182617188 801.7265625 898.451171875 c 0
 801.7265625 1000.34960938 875.62109375 1068.58300781 1039.765625 1068.58300781 c 0
 1057.86230469 1068.58300781 1077.83496094 1067.50683594 1095.8359375 1065.70214844 c 1
 1095.8359375 1018.84375 l 1
 1079.78613281 1019.84375 1067.23632812 1020.28027344 1052.36425781 1020.28027344 c 0
 970.541992188 1020.28027344 854.8359375 1002.97851562 854.8359375 899.23046875 c 0
 854.8359375 726.000976562 1116.8359375 825.512695312 1116.8359375 687.23046875 c 0
 1116.8359375 548.40234375 1001.01660156 504 846 504 c 0
 812.9296875 504 771.64453125 508.25390625 732.8359375 513.374023438 c 1
 732.8359375 567.819335938 l 1
 774.3359375 563.395507812 817.697265625 559.23046875 860.8359375 559.23046875 c 0
538 120 m 2
 1352 120 l 2
 1521.94824219 120 1609 228.809570312 1609 418 c 2
 1609 1273 l 1
 1716 1273 l 1
 1716 415 l 2
 1716 129.578125 1596.36816406 0 1347 0 c 2
 535 0 l 2
 261.626953125 0 132 131.66796875 132 412 c 2
 132 593 l 1
 247 593 l 1
 247 413 l 2
 247 224.071289062 349.669921875 120 538 120 c 2
EndSplineSet
Substitution2: "'fina' Terminal Forms in Arabic lookup 9 subtable" uniFEDA
Substitution2: "'medi' Medial Forms in Arabic lookup 11 subtable" uniFEDC
Substitution2: "'init' Initial Forms in Arabic lookup 13 subtable" uniFEDB
EndChar

StartChar: uni0644
Encoding: 1604 1604 39
GlifName: uni0644
Width: 1334
VWidth: 2551
GlyphClass: 2
Flags: HW
AnchorPoint: "Anchor-10" 599 964.1 basechar 0
AnchorPoint: "Anchor-7" 652 -686 basechar 0
LayerCount: 2
Fore
SplineSet
244 72 m 2
 244 -187.096679688 382.806640625 -326 641 -326 c 2
 694 -326 l 2
 930.526367188 -326 1055 -191.66015625 1055 56 c 2
 1055 1273 l 1
 1160.97558594 1273 l 1
 1160 52 l 2
 1160 -288.037109375 1006.72949219 -447 687 -447 c 2
 641 -447 l 2
 294.383789062 -447 130 -281.193359375 130 71 c 2
 130 382 l 1
 244 382 l 1
 244 72 l 2
EndSplineSet
Substitution2: "'fina' Terminal Forms in Arabic lookup 9 subtable" uniFEDE
Substitution2: "'medi' Medial Forms in Arabic lookup 11 subtable" uniFEE0
Substitution2: "'init' Initial Forms in Arabic lookup 13 subtable" uniFEDF
EndChar

StartChar: uni0645
Encoding: 1605 1605 40
GlifName: uni0645
Width: 1305
VWidth: 2551
GlyphClass: 2
Flags: HW
AnchorPoint: "Anchor-10" 725 1106 basechar 0
AnchorPoint: "Anchor-7" 775 -308 basechar 0
LayerCount: 2
Fore
SplineSet
840 569 m 2
 681 569 l 1
 651 569 l 1
 651 539 l 1
 651 338 l 2
 651 175.786132812 723.952148438 79 866 79 c 0
 998.4921875 79 1062 178.368164062 1062 338 c 2
 1062 380 l 2
 1062 504.491210938 977.727539062 569 840 569 c 2
240 129 m 2
 240 -496 l 1
 130.045898438 -496 l 1
 131 128.954101562 l 2
 131.579101562 508.522460938 277.626953125 681 580 681 c 2
 855 681 l 2
 1075.26367188 681 1175 585.486328125 1175 381 c 2
 1175 337 l 2
 1175 89.0517578125 1074.88183594 -20 866 -20 c 0
 642.823242188 -20 538 90.3525390625 538 336 c 2
 538 524 l 1
 538 554 l 1
 508 554 l 2
 298.9609375 554 240 360.724609375 240 129 c 2
EndSplineSet
Substitution2: "'init' Initial Forms in Arabic lookup 13 subtable" uniFEE3
Substitution2: "'medi' Medial Forms in Arabic lookup 11 subtable" uniFEE4
Substitution2: "'fina' Terminal Forms in Arabic lookup 9 subtable" uniFEE2
EndChar

StartChar: uni0647
Encoding: 1607 1607 42
GlifName: uni0647
Width: 924
VWidth: 2328
GlyphClass: 2
Flags: HW
AnchorPoint: "Anchor-10" 422 1110 basechar 0
AnchorPoint: "Anchor-7" 463 -232 basechar 0
LayerCount: 2
Fore
SplineSet
240 289 m 0
 240 163.872070312 339.24609375 117 468 117 c 0
 599.608398438 117 689 168.13671875 689 293 c 0
 689 371.361328125 618.211914062 477.282226562 471.940429688 607.4140625 c 2
 449.048828125 627.779296875 l 1
 429.170898438 604.463867188 l 2
 296.828125 449.234375 240 368.810546875 240 289 c 0
467 0 m 0
 259.890625 0 133 89.3603515625 133 288 c 0
 133 383.516601562 189.663085938 480.334960938 360.046875 684.794921875 c 2
 377.842773438 706.149414062 l 1
 357.903320312 725.518554688 l 1
 342.90234375 740.090820312 l 1
 414.208984375 825.134765625 l 1
 704.604492188 567.329101562 797 436.383789062 797 287 c 0
 797 89.064453125 672.865234375 0 467 0 c 0
EndSplineSet
Substitution2: "'fina' Terminal Forms in Arabic lookup 9 subtable" uniFEEA
Substitution2: "'medi' Medial Forms in Arabic lookup 11 subtable" uniFEEC
Substitution2: "'init' Initial Forms in Arabic lookup 13 subtable" uniFEEB
EndChar

StartChar: uni0648
Encoding: 1608 1608 43
GlifName: uni0648
Width: 880
VWidth: 2551
GlyphClass: 2
Flags: HW
AnchorPoint: "Anchor-7" 394 -649 basechar 0
AnchorPoint: "Anchor-10" 444 1024 basechar 0
LayerCount: 2
Fore
SplineSet
750 318 m 2
 750 -30 l 2
 750 -296.8359375 570.564453125 -467 202 -467 c 2
 158 -467 l 1
 158 -351 l 1
 196 -351 l 2
 471.22265625 -351 638.877929688 -241.828125 640 -32.080078125 c 2
 640 -30 l 1
 640 0 l 1
 610 0 l 1
 448 0 l 2
 229.504882812 0 129.993164062 97.748046875 129.993164062 309.083007812 c 0
 129.993164062 520.088867188 234.4375 665 447 665 c 0
 640.559570312 665 750 538.029296875 750 318 c 2
237 313 m 0
 237 188.598632812 315.0859375 120 447 120 c 2
 611 120 l 1
 641 120 l 1
 641 150 l 1
 641 319 l 2
 641 467.157226562 563.219726562 553 443 553 c 0
 306.401367188 553 237 452.65234375 237 313 c 0
EndSplineSet
Substitution2: "'fina' Terminal Forms in Arabic lookup 9 subtable" uniFEEE
EndChar

StartChar: uni0649
Encoding: 1609 1609 44
GlifName: uni0649
Width: 1442
VWidth: 2551
GlyphClass: 2
Flags: HW
AnchorPoint: "Anchor-10" 580 985 basechar 0
AnchorPoint: "Anchor-7" 699 -698 basechar 0
LayerCount: 2
Fore
SplineSet
756 262 m 2
 756 551.02734375 895.146484375 686 1110 686 c 2
 1311.17089844 686 l 1
 1311.828125 571 l 1
 1105 571 l 2
 950.565429688 571 873.151367188 455.379882812 869 262.322265625 c 1
 869 199 l 1
 869 169 l 1
 899 169 l 1
 1059 169 l 2
 1238.68847656 169 1311 106.131835938 1311 -21 c 2
 1311 -50 l 2
 1311 -315.399414062 1145.48730469 -447 775 -447 c 2
 691 -447 l 2
 311.448242188 -447 130 -278.186523438 130 75 c 2
 130 455 l 1
 242 455 l 1
 242 75 l 2
 242 -190.98828125 402.663085938 -328 691 -328 c 2
 775 -328 l 2
 1034.63085938 -328 1199 -248.692382812 1199 -68 c 2
 1199 -56 l 2
 1199 18.9892578125 1140.08398438 55 1059 55 c 2
 901 55 l 2
 799.631835938 55 756 95.9228515625 756 190 c 2
 756 262 l 2
EndSplineSet
Substitution2: "'fina' Terminal Forms in Arabic lookup 9 subtable" uniFEF0
Substitution2: "'medi' Medial Forms in Arabic lookup 11 subtable" uniFBE9
Substitution2: "'init' Initial Forms in Arabic lookup 13 subtable" uniFBE8
EndChar

StartChar: uni064B
Encoding: 1611 1611 46
GlifName: uni064B_
Width: -26
VWidth: 2316
GlyphClass: 4
Flags: HW
AnchorPoint: "Anchor-10" 583.551 1123.65 mark 0
AnchorPoint: "Anchor-9" 583.551 1123.65 mark 0
AnchorPoint: "Anchor-1" 553.285 1596.25 basemark 0
AnchorPoint: "Anchor-1" 583.551 1123.65 mark 0
LayerCount: 2
Fore
SplineSet
337 1090.92151333 m 1
 337 1173.28462438 l 1
 772 1351.10880021 l 1
 772 1269.70173311 l 1
 337 1090.92151333 l 1
337 1302.92151333 m 1
 337 1385.28462438 l 1
 772 1563.10880021 l 1
 772 1481.70173311 l 1
 337 1302.92151333 l 1
EndSplineSet
EndChar

StartChar: uni064C
Encoding: 1612 1612 47
GlifName: uni064C_
Width: -26
VWidth: 2316
GlyphClass: 4
Flags: HW
AnchorPoint: "Anchor-10" 680.906 1278.67 mark 0
AnchorPoint: "Anchor-9" 680.906 1278.67 mark 0
AnchorPoint: "Anchor-1" 637.739 1852.46 basemark 0
AnchorPoint: "Anchor-1" 680.906 1278.67 mark 0
LayerCount: 2
Fore
SplineSet
499 1629 m 0
 499 1720.92254991 562.661044562 1781 652 1781 c 0
 741.818302147 1781 804 1721.98682063 804 1628 c 0
 804 1590.69711065 794.369726464 1549.9067844 777.796690815 1510.9114064 c 2
 772.87783625 1499.33763095 l 1
 785.262146661 1497.15216441 l 2
 798.152493966 1494.87739724 810.795997681 1493.68632728 820 1493.23866995 c 1
 820 1437.59528011 l 1
 800.810485742 1438.90086077 782.068510108 1440.91141723 755.842885351 1445.82872187 c 2
 747.90683005 1447.31673224 l 1
 744.780178944 1439.87232484 l 2
 682.501335639 1291.58936459 592.724868867 1220.99202128 471.867219481 1220.99202128 c 0
 348.095082448 1220.99202128 283.288632669 1303.88766641 278.182610319 1481.64870098 c 1
 337.334833979 1492.13137352 l 1
 342.41376358 1354.752554 385.729378928 1279 473 1279 c 0
 552.48225941 1279 622.089813995 1336.98342205 681.717971853 1443.1013301 c 2
 687.560305304 1453.49870319 l 1
 676.303504248 1457.43858356 l 2
 570.664770657 1494.41214032 499 1540.9420679 499 1629 c 0
718.1914503 1519.06080701 m 2
 732.476611679 1552.39285023 746 1592.05787208 746 1627 c 0
 746 1680.25404628 705.390224418 1721 656 1721 c 0
 600.76727936 1721 559 1682.66242438 559 1625 c 0
 559 1558.07309596 643.209905311 1530.07061012 706.441074397 1513.33294772 c 2
 714.789556725 1511.12305534 l 1
 718.1914503 1519.06080701 l 2
EndSplineSet
EndChar

StartChar: uni064D
Encoding: 1613 1613 48
GlifName: uni064D_
Width: -26
VWidth: 2316
GlyphClass: 4
Flags: HW
AnchorPoint: "Anchor-7" 542.278 32.7109 mark 0
AnchorPoint: "Anchor-6" 542.278 32.7109 mark 0
AnchorPoint: "Anchor-0" 592.022 -407.025 basemark 0
AnchorPoint: "Anchor-0" 542.278 32.7109 mark 0
LayerCount: 2
Fore
SplineSet
342 -431.121153945 m 1
 342 -348.720951318 l 1
 778 -170.878846055 l 1
 778 -253.279048682 l 1
 342 -431.121153945 l 1
342 -219.121153945 m 1
 342 -136.720951318 l 1
 778 41.1211539453 l 1
 778 -41.2790486821 l 1
 342 -219.121153945 l 1
EndSplineSet
EndChar

StartChar: uni064E
Encoding: 1614 1614 49
GlifName: uni064E_
Width: -26
VWidth: 2316
GlyphClass: 4
Flags: HW
AnchorPoint: "Anchor-10" 545.66 1397.63 mark 0
AnchorPoint: "Anchor-9" 545.66 1397.63 mark 0
AnchorPoint: "Anchor-1" 541.396 1651.77 basemark 0
AnchorPoint: "Anchor-1" 545.66 1397.63 mark 0
LayerCount: 2
Fore
SplineSet
306 1363.87884605 m 1
 306 1446.27904868 l 1
 742 1624.12115395 l 1
 742 1541.72095132 l 1
 306 1363.87884605 l 1
EndSplineSet
EndChar

StartChar: uni064F
Encoding: 1615 1615 50
GlifName: uni064F_
Width: -26
VWidth: 2316
GlyphClass: 4
Flags: HW
AnchorPoint: "Anchor-10" 591.295 1359.37 mark 0
AnchorPoint: "Anchor-9" 591.295 1359.37 mark 0
AnchorPoint: "Anchor-1" 542.134 1865.4 basemark 0
AnchorPoint: "Anchor-1" 591.295 1359.37 mark 0
LayerCount: 2
Fore
SplineSet
713 1437.08795008 m 1
 688.798733432 1437.52747365 667.000483232 1439.42526907 644.520571843 1442.88371698 c 2
 638.439059774 1443.81933422 l 1
 634.862665288 1438.81238194 l 2
 573.534607547 1352.9531011 465.336836349 1304.00764091 310 1293.62561942 c 1
 310 1351.91274315 l 1
 437.308366631 1364.69105511 524.619771416 1396.37802196 573.286276689 1448.15089991 c 2
 585.880740173 1461.54926532 l 1
 567.788854382 1464.8386991 l 2
 478.019800351 1481.16034529 390 1540.12264246 390 1626 c 0
 390 1718.32861787 453.843355245 1778 543 1778 c 0
 632.369621572 1778 696 1717.93084224 696 1625 c 0
 696 1587.56142432 687.385800034 1549.92144834 670.762578864 1509.83015023 c 2
 665.880053686 1498.05464833 l 1
 678.479428157 1496.11628302 l 2
 688.828822367 1494.52406853 700.870758606 1492.92939687 713 1492.25983279 c 1
 713 1437.08795008 l 1
609.1914503 1516.06080701 m 2
 623.476611679 1549.39285023 637 1589.05787208 637 1624 c 0
 637 1677.77012842 596.96915978 1717 547 1717 c 0
 491.55586692 1717 450 1680.05348045 450 1622 c 0
 450 1555.07309596 534.209905311 1527.07061012 597.441074397 1510.33294772 c 2
 605.789556725 1508.12305534 l 1
 609.1914503 1516.06080701 l 2
EndSplineSet
EndChar

StartChar: uni0650
Encoding: 1616 1616 51
GlifName: uni0650
Width: -26
VWidth: 2316
GlyphClass: 4
Flags: HW
AnchorPoint: "Anchor-7" 571.144 -44.8242 mark 0
AnchorPoint: "Anchor-6" 571.144 -44.8242 mark 0
AnchorPoint: "Anchor-0" 619.091 -324.624 basemark 0
AnchorPoint: "Anchor-0" 571.144 -44.8242 mark 0
LayerCount: 2
Fore
SplineSet
353 -331.078486667 m 1
 353 -248.715375617 l 1
 788 -70.891199793 l 1
 788 -152.298266887 l 1
 353 -331.078486667 l 1
EndSplineSet
EndChar

StartChar: uni0651
Encoding: 1617 1617 52
GlifName: uni0651
Width: -26
VWidth: 2393
GlyphClass: 4
Flags: HW
AnchorPoint: "Anchor-10" 598.801 1453.71 mark 0
AnchorPoint: "Anchor-9" 598.801 1453.71 mark 0
AnchorPoint: "Anchor-1" 570.087 1839.1 basemark 0
AnchorPoint: "Anchor-1" 598.801 1453.71 mark 0
LayerCount: 2
Fore
SplineSet
598.316724329 1748 m 1
 599.050100663 1722.56448188 599.210869212 1699.78340193 601.027318961 1675.26133032 c 0
 605.5760815 1613.8490926 628.307282161 1564 681 1564 c 0
 735.89369238 1564 758 1606.72780802 758 1675 c 0
 758 1699.4752814 752.30268934 1738.05425307 742.892297548 1784.76619761 c 1
 811.792831842 1795.72764624 l 1
 822.065718744 1757.88659806 827 1721.35345252 827 1685 c 0
 827 1552.28380769 780.815224925 1492.92720657 689.94898092 1492 c 0
 649.64606779 1492 605.524222654 1512.31223447 589.94427191 1543.47213595 c 2
 577.96593822 1567.42880334 l 1
 571.31336134 1541.4837535 l 2
 552.878995425 1469.58972644 490.963227508 1448 432 1448 c 0
 345.119231724 1448 303.873817788 1501.51175401 303.873817788 1616.0779836 c 0
 303.873817788 1647.7191824 308.141126629 1679.13661995 314.385613581 1704.63112685 c 1
 373.062120929 1694.85170896 l 1
 367.311145496 1665.04394705 366 1642.3858646 366 1620 c 0
 366 1560.8907373 392.662741806 1526 444 1526 c 0
 539.015415409 1526 541.4140625 1600.13074476 541.4140625 1719.33203125 c 0
 541.4140625 1728.33017375 541.323098297 1739.47934345 541.189708697 1748 c 1
 598.316724329 1748 l 1
EndSplineSet
EndChar

StartChar: uni0652
Encoding: 1618 1618 53
GlifName: uni0652
Width: -26
VWidth: 2316
GlyphClass: 4
Flags: HW
AnchorPoint: "Anchor-10" 595.219 1271.43 mark 0
AnchorPoint: "Anchor-9" 595.219 1271.43 mark 0
AnchorPoint: "Anchor-1" 589.537 1682.66 basemark 0
AnchorPoint: "Anchor-1" 595.219 1271.43 mark 0
LayerCount: 2
Fore
SplineSet
431.07421875 1461.82128906 m 0
 431.07421875 1552.50640373 503.720107133 1625.14941406 594.40234375 1625.14941406 c 0
 685.086633523 1625.14941406 757.731445312 1552.50289097 757.731445312 1461.82128906 c 0
 757.731445312 1415.78178997 742.090912197 1377.6373447 710.33915705 1345.88558954 c 0
 678.586586176 1314.13363487 640.441866241 1298.49316406 594.40234375 1298.49316406 c 0
 503.718303461 1298.49316406 431.07421875 1371.14005914 431.07421875 1461.82128906 c 0
492.664557556 1461.0223626 m 0
 491.688403329 1403.82859904 539.116338676 1357.03211518 596.776955919 1356.92872744 c 0
 654.25449317 1357.03314623 701.069650439 1403.63257871 700.851489986 1460.98437839 c 0
 701.070446569 1518.47920788 654.292571023 1564.94661293 596.730051431 1565.11421652 c 0
 539.149883911 1564.94874407 491.681822355 1518.53542724 492.664557556 1461.0223626 c 0
EndSplineSet
EndChar

StartChar: uni0653
Encoding: 1619 1619 54
GlifName: uni0653
Width: 11
VWidth: 2551
GlyphClass: 4
Flags: HW
AnchorPoint: "Anchor-10" 402 1465 mark 0
AnchorPoint: "Anchor-9" 402 1465 mark 0
AnchorPoint: "Anchor-1" 387 1771 basemark 0
AnchorPoint: "Anchor-1" 402 1465 mark 0
LayerCount: 2
Fore
SplineSet
323 1666 m 2
 688.308710834 1666 l 1
 689.687089212 1564 l 1
 333 1564 l 2
 248.52038031 1564 195.994987591 1511.03282073 163.618814414 1448.09667199 c 1
 89.9260147351 1497.8891042 l 1
 128.532902614 1592.84951061 206.659104932 1666 323 1666 c 2
EndSplineSet
EndChar

StartChar: uni0657
Encoding: 1623 1623 57
GlifName: uni0657
Width: -26
VWidth: 2316
GlyphClass: 4
Flags: HW
AnchorPoint: "Anchor-10" 513.285 1400.55 mark 0
AnchorPoint: "Anchor-9" 513.285 1400.55 mark 0
AnchorPoint: "Anchor-1" 537.285 2069.85 basemark 0
AnchorPoint: "Anchor-1" 513.285 1400.55 mark 0
LayerCount: 2
Fore
SplineSet
275 1794.70522489 m 1
 313.495273456 1793.40577131 350.860322619 1790.63928287 393.942139454 1786.05611087 c 2
 398.692851584 1785.55071596 l 1
 402.071067812 1788.92893219 l 1
 403.071067812 1789.92893219 l 1
 403.680120592 1790.53798497 l 1
 404.176056394 1791.24221381 l 2
 500.639323123 1928.22005256 623.720602118 2004.62763269 775 2021.91192971 c 1
 775 1963.44008912 l 1
 652.351140308 1941.39902177 553.821938133 1881.77251601 478.097801988 1784.12823519 c 2
 469.10064367 1772.52663631 l 1
 483.191012468 1768.40262593 l 2
 569.085052863 1743.26290679 648 1690.38611331 648 1599 c 0
 648 1512.74449768 587.396605318 1448 501 1448 c 0
 413.439353297 1448 342 1508.43593265 342 1603 c 0
 342 1630.43754848 348.737938257 1669.62004518 364.524241472 1718.95224273 c 2
 368.390877545 1731.03548046 l 1
 355.738716855 1731.97267754 l 2
 331.722701265 1733.75164166 303.327819772 1735.61736866 275 1735.94327152 c 1
 275 1794.70522489 l 1
501 1506 m 0
 554.854846155 1506 587 1544.54692007 587 1597 c 0
 587 1667.31280652 504.97224392 1703.095672 439.316205272 1718.72806215 c 2
 431.054805507 1720.69506209 l 1
 427.775590117 1712.86138088 l 2
 409.526845118 1669.26715672 400 1634.19059597 400 1605 c 0
 400 1547.02085847 446.267415898 1506 501 1506 c 0
EndSplineSet
EndChar

StartChar: uni065A
Encoding: 1626 1626 58
GlifName: uni065A_
Width: 1135
VWidth: 2316
GlyphClass: 4
Flags: HW
AnchorPoint: "Anchor-10" 573.285 1350.55 mark 0
AnchorPoint: "Anchor-9" 573.285 1350.55 mark 0
AnchorPoint: "Anchor-1" 571.012 1862.38 basemark 0
AnchorPoint: "Anchor-1" 573.285 1350.55 mark 0
LayerCount: 2
Fore
SplineSet
507.682941341 1454 m 1
 326.596521588 1758 l 1
 427.256296675 1758 l 1
 564.362210991 1522.96128974 l 1
 572.969288359 1508.20629997 l 1
 581.622111466 1522.93450951 l 1
 719.723087127 1758 l 1
 820.356788881 1758 l 1
 638.332097523 1454 l 1
 507.682941341 1454 l 1
EndSplineSet
EndChar

StartChar: uni0660
Encoding: 1632 1632 59
GlifName: afii57392
Width: 890
VWidth: 2551
GlyphClass: 2
Flags: HW
LayerCount: 2
Fore
SplineSet
272.099609375 493 m 4
 272.099609375 397.649414062 349.217773438 319.150390625 445 319.150390625 c 4
 540.780273438 319.150390625 617.900390625 397.6484375 617.900390625 493 c 4
 617.900390625 588.350585938 540.782226562 666.849609375 445 666.849609375 c 4
 349.219726562 666.849609375 272.099609375 588.3515625 272.099609375 493 c 4
170 493 m 0
 170 644.404296875 293.595703125 768 445 768 c 0
 596.404296875 768 720 644.404296875 720 493 c 0
 720 341.595703125 596.404296875 218 445 218 c 0
 293.595703125 218 170 341.595703125 170 493 c 0
EndSplineSet
EndChar

StartChar: uni0661
Encoding: 1633 1633 60
GlifName: afii57393
Width: 682
VWidth: 2551
GlyphClass: 2
Flags: HW
LayerCount: 2
Fore
SplineSet
438 4 m 1
 327 4 l 1
 327 270 l 2
 327 625.487304688 288.288085938 938.678710938 212.092773438 1205.99804688 c 1
 317.763671875 1238.41308594 l 1
 398.298828125 957.400390625 438 636.130859375 438 269 c 2
 438 4 l 1
EndSplineSet
EndChar

StartChar: uni0662
Encoding: 1634 1634 61
GlifName: afii57394
Width: 1096
VWidth: 2551
GlyphClass: 2
Flags: HW
LayerCount: 2
Fore
SplineSet
628.849609375 835.982421875 m 0
 841.426757812 835.982421875 846 991.862304688 846 1183 c 2
 846 1248 l 1
 951 1248 l 1
 951 1187 l 2
 951 871.016601562 898.079101562 717 626 717 c 0
 556.932756349 717 459.014710069 747.3818103 403.919921875 790.021484375 c 5
 413.334960938 727.530273438 l 2
 428.0859375 629.624023438 438 459.3671875 438 270 c 2
 438 4 l 1
 327 4 l 1
 327 270 l 2
 327 624.609375 288.34375 937.435546875 212.989257812 1205.9140625 c 1
 317.783203125 1237.86328125 l 1
 388.72265625 920.45703125 l 1
 391.49609375 908.047851562 l 1
 402.340820312 901.411132812 l 2
 473.953125 857.588867188 552.708007812 835.982421875 628.849609375 835.982421875 c 0
EndSplineSet
EndChar

StartChar: uni0663
Encoding: 1635 1635 62
GlifName: afii57395
Width: 1395
VWidth: 2551
GlyphClass: 2
Flags: HW
LayerCount: 2
Fore
SplineSet
576.796875 835.989257812 m 0
 685.42578125 835.989257812 738 946.409179688 738 1071.90917969 c 2
 738.818359375 1207 l 1
 841.817382812 1207 l 1
 841 1072.09082031 l 2
 841 956.383789062 871.784179688 836 998 836 c 0
 1087.17773438 836 1155 898.166015625 1155 1077 c 2
 1155 1246 l 1
 1257 1246 l 1
 1257 1077 l 2
 1257 827.314453125 1160.046875 717 1008 717 c 0
 896.695805867 717 853.41015625 762.467773438 799 844.083007812 c 5
 746.28515625 765.010742188 700.864512212 717 598 717 c 0
 527.8796224 717 457.733398438 754.544921875 403.575195312 787.041015625 c 1
 412.290039062 734.836914062 l 2
 430.723632812 603.276367188 438 454.466796875 438 270 c 2
 438 4 l 1
 327 4 l 1
 327 270 l 2
 327 624.609375 288.34375 937.435546875 212.989257812 1205.9140625 c 1
 317.783203125 1237.86328125 l 1
 388.72265625 920.45703125 l 1
 391.05859375 910.00390625 l 1
 399.485351562 903.39453125 l 2
 452.956054688 861.45703125 504.58203125 835.989257812 576.796875 835.989257812 c 0
EndSplineSet
EndChar

StartChar: uni0664
Encoding: 1636 1636 63
GlifName: afii57396
Width: 966
VWidth: 2551
GlyphClass: 2
Flags: HW
LayerCount: 2
Fore
SplineSet
171.999023438 292.74609375 m 0
 172.849609375 406.799804688 272.78125 511.333984375 500.893554688 619.912109375 c 2
 556.409179688 646.336914062 l 1
 501.416015625 673.833007812 l 2
 299.720703125 774.680664062 212 880.678710938 212 985 c 0
 212 1146.4140625 327.750976562 1234.01660156 604.053710938 1235 c 2
 711.342773438 1235 l 1
 712.655273438 1120.77734375 l 1
 606.795898438 1119.99902344 l 2
 461.408203125 1119.01074219 356 1081.65820312 356 979 c 0
 356 875.720703125 486.998046875 794.680664062 699.732421875 711.857421875 c 1
 692.272460938 588.018554688 l 1
 456.553710938 508.020507812 313.758789062 426.228515625 315.001953125 300.703125 c 0
 316.270507812 172.505859375 436.314453125 120 620 120 c 2
 825.828125 120 l 1
 825.170898438 5 l 1
 620 5 l 2
 615.924804688 5 611.877929688 5.017578125 607.859375 5.052734375 c 0
 300.98828125 7.7314453125 170.245117188 106.86328125 171.999023438 292.74609375 c 0
EndSplineSet
EndChar

StartChar: uni0665
Encoding: 1637 1637 64
GlifName: afii57397
Width: 1172
VWidth: 2551
GlyphClass: 2
Flags: HW
LayerCount: 2
Fore
SplineSet
550.59375 972.94921875 m 2
 345.59765625 742.706054688 239 538.2890625 239 340 c 0
 239 188.944335938 377.932617188 124 599 124 c 0
 800.2578125 124 927 187.984375 927 330 c 0
 927 545.193359375 814.05859375 752.330078125 600.7265625 970.62890625 c 1
 583.21875 1005.64453125 l 1
 553.787109375 976.212890625 l 1
 551.787109375 974.212890625 l 1
 551.171875 973.598632812 l 1
 550.59375 972.94921875 l 2
419.909179688 1113.94140625 m 1
 483.049804688 1211.28320312 l 1
 859.373046875 937.423828125 1040 656.541992188 1040 348 c 0
 1040 112.9609375 904.814453125 -1.970703125 602.08984375 -1 c 0
 276.106445312 -0.021484375 132 114.139648438 132 339 c 0
 132 555.73828125 238.091796875 784.194335938 458.845703125 1043.55566406 c 2
 461.205078125 1046.32714844 l 1
 462.833007812 1049.58398438 l 1
 463.833007812 1051.58398438 l 1
 473.502929688 1070.92382812 l 1
 458.212890625 1086.21289062 l 1
 457.212890625 1087.21289062 l 1
 455.368164062 1089.05761719 l 1
 453.232421875 1090.55664062 l 1
 419.909179688 1113.94140625 l 1
EndSplineSet
EndChar

StartChar: uni0666
Encoding: 1638 1638 65
GlifName: afii57398
Width: 1176
VWidth: 2551
GlyphClass: 2
Flags: HW
LayerCount: 2
Fore
SplineSet
144 1246.05664062 m 1
 643 1247 l 2
 841.004882812 1247 934 1148.76757812 934 929 c 2
 934 4 l 1
 826 4 l 1
 826 925 l 2
 826 1044.06933594 758.0703125 1112 639 1112 c 2
 144 1112 l 1
 144 1246.05664062 l 1
EndSplineSet
EndChar

StartChar: uni0667
Encoding: 1639 1639 66
GlifName: afii57399
Width: 1201
VWidth: 2551
GlyphClass: 2
Flags: HW
LayerCount: 2
Fore
SplineSet
629.28515625 347.4921875 m 2
 691.067382812 625.51171875 803.712890625 917.620117188 954.045898438 1243.91113281 c 1
 1057.3984375 1190.27148438 l 1
 858.36328125 809.075195312 721.823242188 419.970703125 647.782226562 4 c 1
 553.217773438 4 l 1
 478.88671875 421.603515625 341.849609375 810.58203125 143.6015625 1190.27148438 c 1
 246.953125 1243.91015625 l 1
 398.221679688 915.474609375 508.829101562 625.975585938 570.71484375 347.4921875 c 2
 600 215.70703125 l 1
 629.28515625 347.4921875 l 2
EndSplineSet
EndChar

StartChar: uni0668
Encoding: 1640 1640 67
GlifName: afii57400
Width: 1201
VWidth: 2551
GlyphClass: 2
Flags: HW
LayerCount: 2
Fore
SplineSet
571.71484375 892.5078125 m 2
 509.932617188 614.48828125 397.287109375 322.379882812 246.954101562 -3.9111328125 c 1
 143.6015625 49.728515625 l 1
 342.63671875 430.924804688 479.176757812 820.029296875 553.217773438 1236 c 1
 647.782226562 1236 l 1
 722.11328125 818.396484375 859.150390625 429.41796875 1057.3984375 49.728515625 c 1
 954.046875 -3.91015625 l 1
 802.778320312 324.525390625 692.170898438 614.024414062 630.28515625 892.5078125 c 2
 601 1024.29296875 l 1
 571.71484375 892.5078125 l 2
EndSplineSet
EndChar

StartChar: uni0669
Encoding: 1641 1641 68
GlifName: afii57401
Width: 1080
GlyphClass: 2
Flags: HW
LayerCount: 2
Fore
SplineSet
160 897 m 0
 160 1075.01171875 303.76171875 1253 485 1253 c 0
 726.53125 1253 792.501953125 1076.1484375 807.037109375 795.51171875 c 0
 821.747070312 499.375 832.463867188 245.694335938 839.188476562 0 c 1
 731.21484375 0 l 1
 727.041992188 155.314453125 717.3203125 492.126953125 713.990234375 619.782226562 c 2
 712.966796875 659.010742188 l 1
 675.379882812 647.734375 l 2
 645.16796875 638.670898438 574.278320312 624 496 624 c 0
 264.801757812 624 160 701.765625 160 897 c 0
484 1142 m 0
 355.9609375 1142 266 1015.38867188 266 897 c 0
 266 779.333007812 349.897460938 734 499 734 c 0
 554.904296875 734 640.842773438 748.931640625 678.620117188 760.265625 c 2
 701.397460938 767.098632812 l 1
 699.944335938 790.833007812 l 2
 693.125 902.193359375 686.107421875 996.876953125 638.287109375 1066.91601562 c 0
 606.076171875 1114.09179688 554.530273438 1142 484 1142 c 0
EndSplineSet
EndChar

StartChar: uni066A
Encoding: 1642 1642 69
GlifName: afii57381
Width: 1033
VWidth: 4036
GlyphClass: 2
Flags: HW
LayerCount: 2
Fore
SplineSet
757 1262 m 5
 834 1227 l 5
 277 -5 l 5
 200 30 l 5
 757 1262 l 5
667 143 m 4
 667 200 714 247 770 247 c 4
 826 247 873 200 873 143 c 4
 873 87 826 40 770 40 c 4
 712 40 667 84 667 143 c 4
160 1109 m 4
 160 1166 207 1213 263 1213 c 4
 319 1213 366 1166 366 1109 c 4
 366 1053 319 1006 263 1006 c 4
 205 1006 160 1050 160 1109 c 4
EndSplineSet
EndChar

StartChar: uni066B
Encoding: 1643 1643 70
GlifName: uni066B_
Width: 772
VWidth: 2920
GlyphClass: 2
Flags: HW
LayerCount: 2
Fore
SplineSet
549.604492188 643.765625 m 1
 621.470703125 613.208007812 l 1
 183.368164062 -398.6015625 l 1
 108.556640625 -366.375 l 1
 549.604492188 643.765625 l 1
EndSplineSet
PairPos2: "'kern' Horizontal Kerning lookup 15-4" uni06F4 dx=-110 dy=0 dh=-110 dv=0 dx=0 dy=0 dh=0 dv=0
PairPos2: "'kern' Horizontal Kerning lookup 15-4" uni06F3 dx=-130 dy=0 dh=-130 dv=0 dx=0 dy=0 dh=0 dv=0
PairPos2: "'kern' Horizontal Kerning lookup 15-4" uni06F2 dx=-130 dy=0 dh=-130 dv=0 dx=0 dy=0 dh=0 dv=0
EndChar

StartChar: uni066C
Encoding: 1644 1644 71
GlifName: uni066C_
Width: 560
GlyphClass: 2
Flags: HW
LayerCount: 2
Fore
SplineSet
176.653944508 -261.337249504 m 1
 123.905517505 -221.359494301 l 1
 179.903355207 -135.614736324 214.337396376 -40.9461241755 217 51.5683835077 c 2
 217 189 l 1
 328 189 l 1
 328 74 l 2
 328 -56.4427651366 253.035402952 -189.518137527 176.653944508 -261.337249504 c 1
EndSplineSet
EndChar

StartChar: uni066D
Encoding: 1645 1645 72
GlifName: afii63167
Width: 1436
VWidth: 2948
GlyphClass: 2
Flags: HW
LayerCount: 2
Fore
SplineSet
242.620117188 979 m 1
 583 979 l 1
 604.72265625 979 l 1
 611.501953125 999.637695312 l 1
 718 1323.86621094 l 1
 824.498046875 999.637695312 l 1
 831.27734375 979 l 1
 853 979 l 1
 1193.37988281 979 l 1
 918.255859375 777.190429688 l 1
 900.733398438 764.336914062 l 1
 907.484375 743.680664062 l 1
 1012.875 421.215820312 l 1
 735.5546875 621.328125 l 1
 718 633.995117188 l 1
 700.4453125 621.328125 l 1
 423.125 421.215820312 l 1
 528.515625 743.680664062 l 1
 535.266601562 764.336914062 l 1
 517.744140625 777.190429688 l 1
 242.620117188 979 l 1
EndSplineSet
EndChar

StartChar: uni066E
Encoding: 1646 1646 73
GlifName: uni066E_
Width: 1885
VWidth: 2551
GlyphClass: 2
Flags: HW
AnchorPoint: "Anchor-10" 878 1198 basechar 0
AnchorPoint: "Anchor-7" 918 -247 basechar 0
LayerCount: 2
Fore
SplineSet
535 120 m 2
 1360 120 l 2
 1541.09667969 120 1641 223.80859375 1641 413 c 2
 1641 580 l 1
 1755 580 l 1
 1755 416 l 2
 1755 132.041015625 1628.87988281 0 1357 0 c 2
 538 0 l 2
 264.245117188 0 130 131.1640625 130 412 c 2
 130 583 l 1
 244 583 l 1
 244 413 l 2
 244 223.963867188 347.6953125 120 535 120 c 2
EndSplineSet
Substitution2: "'fina' Terminal Forms in Arabic lookup 9 subtable" uni066E.fina
EndChar

StartChar: uni066F
Encoding: 1647 1647 74
GlifName: uni066F_
Width: 1431
VWidth: 2551
GlyphClass: 2
Flags: HW
AnchorPoint: "Anchor-10" 354 1130 basechar 0
AnchorPoint: "Anchor-7" 425 -745 basechar 0
LayerCount: 2
Fore
SplineSet
1301 318 m 2
 1301 -96 l 2
 1301 -358.333984375 1059.15917969 -449 744 -449 c 2
 693 -449 l 2
 311.276367188 -449 130 -281.052734375 130 71 c 2
 130 382 l 1
 244 382 l 1
 244 72 l 2
 244 -192.975585938 403.681640625 -330 693 -330 c 2
 744 -330 l 2
 993.888671875 -330 1190.97949219 -268.10546875 1191.00097656 -96 c 2
 1191 -30 l 1
 1191 0 l 1
 1161 0 l 1
 999 0 l 2
 780.504882812 0 680.993164062 97.748046875 680.993164062 309.083007812 c 0
 680.993164062 520.088867188 785.4375 665 998 665 c 0
 1191.5859375 665 1301 538.3671875 1301 318 c 2
788 313 m 0
 788 188.598632812 866.0859375 120 998 120 c 2
 1162 120 l 1
 1192 120 l 1
 1192 150 l 1
 1192 319 l 2
 1192 467.157226562 1114.21972656 553 994 553 c 0
 857.401367188 553 788 452.65234375 788 313 c 0
EndSplineSet
Substitution2: "'fina' Terminal Forms in Arabic lookup 9 subtable" uni066F.fina
EndChar

StartChar: uni0670
Encoding: 1648 1648 75
GlifName: uni0670
Width: -29
VWidth: 2574
GlyphClass: 4
Flags: HW
AnchorPoint: "Anchor-10" 646.984 1500.61 mark 0
AnchorPoint: "Anchor-9" 646.984 1500.61 mark 0
AnchorPoint: "Anchor-1" 646.984 1957.18 basemark 0
AnchorPoint: "Anchor-1" 646.984 1500.61 mark 0
LayerCount: 2
Fore
SplineSet
613 1578 m 5
 613 1920 l 5
 681 1920 l 5
 681 1578 l 5
 613 1578 l 5
EndSplineSet
EndChar

StartChar: uni0674
Encoding: 1652 1652 76
GlifName: uni0674
Width: 551
VWidth: 2539
GlyphClass: 2
Flags: HW
LayerCount: 2
Fore
SplineSet
195.533051264 1981.04297421 m 2
 149.361504231 2018.45549882 131 2061.07308861 131 2133 c 0
 131 2251.96855287 218.048808725 2326 337 2326 c 0
 379.517037945 2326 420.929164076 2313.35858687 458.085917743 2291.72520033 c 1
 458.736195431 2206.4850408 l 1
 422.130589355 2224.55571289 387.745928939 2233 351 2233 c 0
 276.712052629 2233 216 2201.25674584 216 2119.74995314 c 0
 217.273370093 2068.83583592 248.147599329 2031.69419793 314.357124572 2007.13234643 c 0
 321.956495029 2004.59883414 329.412473629 2002.1953125 338.90234375 2002.1953125 c 0
 342.525307066 2002.1953125 346.665943846 2002.85058789 350.389056072 2003.66843962 c 0
 387.681704845 2010.82097857 428.366487333 2019.29154363 465 2026.64265583 c 1
 465 1940.75607864 l 1
 98 1852.38752827 l 1
 98 1934.02797758 l 1
 189.407554243 1954.76024145 l 1
 219.53582428 1961.59367277 l 1
 195.533051264 1981.04297421 l 2
EndSplineSet
EndChar

StartChar: uni06A1
Encoding: 1697 1697 80
GlifName: uni06A_1
Width: 1842
VWidth: 2551
GlyphClass: 2
Flags: HW
AnchorPoint: "Anchor-10" 502 1175 basechar 0
AnchorPoint: "Anchor-7" 519 -217 basechar 0
LayerCount: 2
Fore
SplineSet
1100 596 m 0
 1100 788.15234375 1208.11425781 920 1410 920 c 0
 1615.69042969 920 1712 807.810546875 1712 624 c 2
 1712 305 l 2
 1712 99.8349609375 1607.62695312 0 1306 0 c 2
 536 0 l 2
 262.372070312 0 130 130.97265625 130 412 c 2
 130 583 l 1
 244 583 l 1
 244 413 l 2
 244 224.287109375 345.483398438 120 533 120 c 2
 1309 120 l 2
 1531.29492188 120 1609 176.545898438 1609 298 c 2
 1609 323 l 1
 1609 355.90625 l 1
 1576.234375 352.872070312 l 2
 1522.47070312 347.89453125 1472.95703125 344 1426 344 c 0
 1196.78027344 344 1100 417.686523438 1100 596 c 0
1412 809 m 0
 1283.12304688 809 1205 731.51171875 1205 607 c 0
 1205 481.057617188 1302.48339844 458 1434 458 c 0
 1483.71191406 458 1533.45800781 462.25390625 1578.8984375 468 c 1
 1609 468 l 1
 1609 498 l 1
 1609 627 l 2
 1609 735.0234375 1536.54199219 809 1412 809 c 0
EndSplineSet
Substitution2: "'init' Initial Forms in Arabic lookup 13 subtable" uni06A1.init
Substitution2: "'medi' Medial Forms in Arabic lookup 11 subtable" uni06A1.medi
Substitution2: "'fina' Terminal Forms in Arabic lookup 9 subtable" uni06A1.fina
EndChar

StartChar: uni06A9
Encoding: 1705 1705 81
GlifName: uni06A_9
Width: 1855
VWidth: 2551
GlyphClass: 2
Flags: HW
AnchorPoint: "Anchor-10" 1065 1299 basechar 0
AnchorPoint: "Anchor-7" 848 -263 basechar 0
LayerCount: 2
Fore
SplineSet
1257 0 m 2
 532 0 l 2
 258.626953125 0 130 130.586914062 130 412 c 2
 130 583 l 1
 245 583 l 1
 245 413 l 2
 245 224.125 347.588867188 120 535 120 c 2
 1259 120 l 2
 1425.00585938 120 1539 166.801757812 1539 284 c 0
 1539 337.680664062 1494.73828125 401.573242188 1419.62011719 486.70703125 c 2
 1105.7421875 851.564453125 l 2
 1076.00585938 886.131835938 1057 922.384765625 1057 967.8125 c 0
 1057.84375 1035.30371094 1088.62890625 1075.83105469 1155.32226562 1097.48535156 c 2
 1740 1288.62988281 l 1
 1740 1172.76757812 l 1
 1190.69335938 993.51953125 l 1
 1147.83789062 979.53515625 l 1
 1177.28515625 945.403320312 l 1
 1485.28515625 588.403320312 l 2
 1598.43554688 457.252929688 1645.02148438 369.068359375 1645.02148438 283.68359375 c 0
 1645.02148438 102.275390625 1527.01074219 0 1257 0 c 2
EndSplineSet
Substitution2: "'init' Initial Forms in Arabic lookup 13 subtable" uniFB90
Substitution2: "'medi' Medial Forms in Arabic lookup 11 subtable" uniFB91
Substitution2: "'fina' Terminal Forms in Arabic lookup 9 subtable" uniFB8F
EndChar

StartChar: uni06BA
Encoding: 1722 1722 83
GlifName: afii57514
Width: 1437
VWidth: 2551
GlyphClass: 2
Flags: HW
AnchorPoint: "Anchor-10" 597 893 basechar 0
AnchorPoint: "Anchor-7" 701 -738 basechar 0
LayerCount: 2
Fore
SplineSet
1307 571 m 1
 1307 22.353515625 l 1
 1299.04882812 -295.5390625 1116.19824219 -449 744 -449 c 2
 693 -449 l 2
 311.276367188 -449 130 -281.052734375 130 71 c 2
 130 382 l 1
 244 382 l 1
 244 72 l 2
 244 -192.975585938 403.681640625 -330 693 -330 c 2
 744 -330 l 2
 1029.78027344 -330 1191 -214.450195312 1191 17 c 2
 1191 571 l 1
 1307 571 l 1
EndSplineSet
Substitution2: "'fina' Terminal Forms in Arabic lookup 9 subtable" uniFB9F
EndChar

StartChar: uni06F4
Encoding: 1780 1780 90
GlifName: uni06F_4
Width: 1186
VWidth: 2551
GlyphClass: 2
Flags: HW
LayerCount: 2
Fore
SplineSet
676.982421875 776.896484375 m 4
 721.995117188 766.067382812 789.221679688 758 857 758 c 0
 911.21875 758 978.600585938 767.997070312 1050.74902344 792.783203125 c 1
 1052.64453125 684.108398438 l 1
 974.342773438 654.435546875 897.006835938 645 837 645 c 0
 675.18693274 645 514.036761495 707.631719065 409.10546875 770.744140625 c 1
 415.180664062 715.708007812 l 2
 430.017578125 581.30078125 438 414.659179688 438 270 c 2
 438 4 l 1
 327 4 l 1
 327 270 l 2
 327 623.749023438 288.397460938 936.235351562 212.950195312 1205.95507812 c 1
 316.853515625 1237.82714844 l 1
 394.734375 892.401367188 l 1
 397.01953125 882.267578125 l 1
 435 856 482.549078018 836.663193959 531 822.228515625 c 1
 531 862 l 2
 531 1119.70898438 637.37890625 1247 829 1247 c 0
 886.137695312 1247 943.887695312 1238.15039062 1011.21582031 1200.03710938 c 1
 1002.46484375 1114.28027344 l 1
 946.759765625 1137.27636719 894.513671875 1145.00195312 850.442382812 1145.00195312 c 0
 706.325195312 1145.00195312 615.55859375 1043.71777344 615.55859375 849.219726562 c 0
 615.55859375 833.024414062 617.25 816.13671875 629.009765625 801.732421875 c 0
 642.497070312 785.212890625 663.989257812 780.022460938 676.982421875 776.896484375 c 4
EndSplineSet
PairPos2: "'kern' Horizontal Kerning lookup 15-4" uni06F9 dx=-64 dy=0 dh=-64 dv=0 dx=0 dy=0 dh=0 dv=0
PairPos2: "'kern' Horizontal Kerning lookup 15-4" uni06F1 dx=-64 dy=0 dh=-64 dv=0 dx=0 dy=0 dh=0 dv=0
PairPos2: "'kern' Horizontal Kerning lookup 15-4" uni06F8 dx=-64 dy=0 dh=-64 dv=0 dx=0 dy=0 dh=0 dv=0
PairPos2: "'kern' Horizontal Kerning lookup 15-4" uni06F5 dx=-40 dy=0 dh=-40 dv=0 dx=0 dy=0 dh=0 dv=0
PairPos2: "'kern' Horizontal Kerning lookup 15-4" uni06F0 dx=-64 dy=0 dh=-64 dv=0 dx=0 dy=0 dh=0 dv=0
EndChar

StartChar: uni06F5
Encoding: 1781 1781 91
GlifName: uni06F_5
Width: 1218
VWidth: 2551
GlyphClass: 2
Flags: HW
LayerCount: 2
Fore
SplineSet
588.993164062 980.252929688 m 2
 346.854492188 690.891601562 234 475.666015625 234 294 c 0
 234 198.170898438 271.370117188 120 375 120 c 0
 502.356445312 120 556.030273438 220.518554688 568.080078125 365 c 1
 650.801757812 365 l 1
 662.4140625 221.727539062 715.834960938 120 842 120 c 0
 943.315429688 120 986.009765625 189.146484375 986.009765625 291.579101562 c 0
 986.009765625 492.360351562 855.81640625 706.014648438 635.3671875 979.814453125 c 2
 612.447265625 1008.28125 l 1
 588.993164062 980.252929688 l 2
378 0 m 0
 206.498046875 0 130 98.0966796875 130 290 c 0
 130 519.124023438 302.916992188 793.8671875 519.349609375 1062.1640625 c 2
 535.797851562 1082.55371094 l 1
 517.810546875 1101.59863281 l 1
 485.546875 1135.75976562 l 1
 566.013671875 1227.62597656 l 1
 893.1796875 883.547851562 1088 537.03125 1088 290 c 0
 1088 96.103515625 1012.73925781 0 839 0 c 0
 701.157012477 0 662.533203125 81.240234375 610 196.157226562 c 5
 557.528320312 81.3740234375 516.05356244 0 378 0 c 0
EndSplineSet
PairPos2: "'kern' Horizontal Kerning lookup 15-4" uni06F8 dx=-38 dy=0 dh=-38 dv=0 dx=0 dy=0 dh=0 dv=0
PairPos2: "'kern' Horizontal Kerning lookup 15-4" uni06F7 dx=-100 dy=0 dh=-100 dv=0 dx=0 dy=0 dh=0 dv=0
PairPos2: "'kern' Horizontal Kerning lookup 15-4" uni06F6 dx=-42 dy=0 dh=-42 dv=0 dx=0 dy=0 dh=0 dv=0
PairPos2: "'kern' Horizontal Kerning lookup 15-4" uni06F4 dx=-42 dy=0 dh=-42 dv=0 dx=0 dy=0 dh=0 dv=0
PairPos2: "'kern' Horizontal Kerning lookup 15-4" uni06F3 dx=-100 dy=0 dh=-100 dv=0 dx=0 dy=0 dh=0 dv=0
PairPos2: "'kern' Horizontal Kerning lookup 15-4" uni06F2 dx=-100 dy=0 dh=-100 dv=0 dx=0 dy=0 dh=0 dv=0
EndChar

StartChar: uni06F6
Encoding: 1782 1782 92
GlifName: uni06F_6
Width: 1000
VWidth: 2551
GlyphClass: 2
Flags: HW
LayerCount: 2
Fore
SplineSet
540 1143 m 0
 394.014648438 1143 273.97265625 1056.83886719 273.97265625 906.733398438 c 0
 273.97265625 750.494140625 410.08984375 684.5703125 576.974609375 684.5703125 c 0
 608.521484375 684.5703125 646.466796875 686.866210938 683.172851562 712.401367188 c 0
 731.479492188 746.125 767.25390625 785.108398438 814.547851562 828.9140625 c 1
 865.380859375 740.88671875 l 1
 710.4140625 607.568359375 566.30859375 384.296875 344.041992188 -29.6572265625 c 1
 244.265625 17.638671875 l 1
 383.461914062 278.072265625 421.302734375 329.223632812 552.373046875 536.993164062 c 2
 578.880859375 579.013671875 l 1
 529.3515625 582.908203125 l 2
 284.3515625 602.16796875 165 718.670898438 165 897 c 0
 165 1105.41015625 302.357421875 1249 506 1249 c 0
 575.743164062 1249 635.444335938 1236.35351562 684.885742188 1212.77539062 c 1
 684.286132812 1116.88085938 l 1
 636.375976562 1134.79296875 589.993164062 1143 540 1143 c 0
EndSplineSet
PairPos2: "'kern' Horizontal Kerning lookup 15-4" uni06F9 dx=-30 dy=0 dh=-30 dv=0 dx=0 dy=0 dh=0 dv=0
PairPos2: "'kern' Horizontal Kerning lookup 15-4" uni06F8 dx=-40 dy=0 dh=-40 dv=0 dx=0 dy=0 dh=0 dv=0
PairPos2: "'kern' Horizontal Kerning lookup 15-4" uni06F7 dx=-40 dy=0 dh=-40 dv=0 dx=0 dy=0 dh=0 dv=0
EndChar

StartChar: uniFB8F
Encoding: 64399 64399 107
GlifName: uniF_B_8F_
Width: 2020
VWidth: 2551
GlyphClass: 2
Flags: HW
AnchorPoint: "Anchor-7" 848 -263 basechar 0
AnchorPoint: "Anchor-10" 1065 1299 basechar 0
LayerCount: 2
Fore
SplineSet
1257 0 m 2
 532 0 l 2
 258.626953125 0 130 130.586914062 130 412 c 2
 130 583 l 1
 245 583 l 1
 245 413 l 2
 245 225.301757812 346.452148438 120 535 120 c 2
 1259 120 l 2
 1425.00585938 120 1539 166.801757812 1539 284 c 0
 1539 337.680664062 1494.73828125 401.573242188 1419.62011719 486.70703125 c 2
 1105.7421875 851.565429688 l 2
 1074.61035156 887.752929688 1057 922.036132812 1057 967.8125 c 0
 1057.84375 1035.30371094 1088.62890625 1075.83105469 1155.32226562 1097.48535156 c 2
 1740 1288.62988281 l 1
 1740 1172.76757812 l 1
 1190.69335938 993.51953125 l 1
 1147.7734375 979.514648438 l 1
 1177.3125 945.372070312 l 1
 1748.3125 285.372070312 l 2
 1838.30957031 181.34765625 1921.12695312 121.237304688 2002.77246094 120 c 2
 2015.515625 120 l 1
 2018.19042969 109.427734375 2020 91.9521484375 2020 67 c 2
 2020 56 l 2
 2020 29.2421875 2017.53710938 8.58984375 2015.30859375 -0 c 1
 2012 0 l 2
 1887.00097656 0 1780.203125 60.58984375 1686.59765625 188.186523438 c 1
 1684.96191406 190.640625 l 1
 1650.93652344 241.678710938 l 1
 1631.5390625 183.487304688 l 2
 1591.98925781 64.8349609375 1478.38183594 0 1257 0 c 2
EndSplineSet
EndChar

StartChar: uniFB9F
Encoding: 64415 64415 115
GlifName: uniF_B_9F_
Width: 1590
VWidth: 2551
GlyphClass: 2
Flags: HW
AnchorPoint: "Anchor-7" 691 -698 basechar 0
AnchorPoint: "Anchor-10" 644 776 basechar 0
LayerCount: 2
Fore
SplineSet
1594.08007812 0 m 6
 1557 0 l 2
 1379.75912381 0 1354.79394531 44.5947265625 1294 128.8359375 c 1
 1294 46 l 1
 1294 22 l 2
 1294 -295.642578125 1123.29980469 -449 744 -449 c 2
 693 -449 l 2
 311.276367188 -449 130 -281.052734375 130 71 c 2
 130 382 l 1
 244 382 l 1
 244 72 l 2
 244 -192.975585938 403.681640625 -330 693 -330 c 2
 744 -330 l 2
 1029.78027344 -330 1191 -214.450195312 1191 17 c 2
 1191 571 l 1
 1307 571 l 1
 1307 367 l 2
 1307 197.54296875 1401 120 1566 120 c 2
 1594.31347656 120 l 6
 1615 120 1619.765625 92.431640625 1619.765625 67 c 6
 1619.765625 56 l 6
 1619.765625 28.673828125 1613 0 1594.08007812 0 c 6
EndSplineSet
EndChar

StartChar: uniFBE8
Encoding: 64488 64488 118
GlifName: uniF_B_E_8
Width: 757
VWidth: 2551
GlyphClass: 2
Flags: HW
AnchorPoint: "Anchor-10" 450 1188 basechar 0
AnchorPoint: "Anchor-7" 467 -174 basechar 0
LayerCount: 2
Fore
SplineSet
-4.5478515625 120 m 6
 278 120 l 2
 423 120 510 179.215820312 510 343 c 2
 510 607 l 1
 624 607 l 1
 624 342 l 2
 624 108.301757812 515 0 279 0 c 2
 -4.314453125 0 l 6
 -25 0 -30 28.9482421875 -30 56 c 6
 -30 67 l 6
 -30 92.6611328125 -24 120 -4.5478515625 120 c 6
EndSplineSet
EndChar

StartChar: uniFBE9
Encoding: 64489 64489 119
GlifName: uniF_B_E_9
Width: 877
VWidth: 2551
GlyphClass: 2
Flags: HW
AnchorPoint: "Anchor-10" 370 1094 basechar 0
AnchorPoint: "Anchor-7" 409 -179 basechar 0
LayerCount: 2
Fore
SplineSet
880.30859375 0 m 2
 861 0 l 2
 720 0 650.610351562 40.048828125 598.298828125 122.124023438 c 2
 574.959960938 158.741210938 l 1
 548.96875 123.958007812 l 2
 487.700195312 41.9658203125 400 0 236 0 c 2
 -4.314453125 0 l 2
 -25 0 -30 28.9482421875 -30 56 c 2
 -30 67 l 2
 -30 92.6611328125 -24 120 -4.5478515625 120 c 2
 241 120 l 2
 421 120 512 197.162109375 512 345 c 2
 512 573 l 1
 623 573 l 1
 623 345 l 2
 623 201.5 695 120 860 120 c 2
 880.541992188 120 l 2
 901 120 905.994140625 92.431640625 905.994140625 67 c 2
 905.994140625 56 l 2
 905.994140625 28.673828125 899 0 880.30859375 0 c 2
EndSplineSet
EndChar

StartChar: uniFE73
Encoding: 65139 65139 127
GlifName: uniF_E_73
Width: 660
VWidth: 2950
GlyphClass: 2
Flags: HW
AnchorPoint: "Anchor-10" 331 980 basechar 0
AnchorPoint: "Anchor-7" 405 -238 basechar 0
LayerCount: 2
Fore
SplineSet
256.03125 389 m 1
 258.7265625 208.404296875 389.067382812 122 606 122 c 2
 645 122 l 1
 645 0 l 1
 596 0 l 2
 277.227539062 0 133.106445312 129.9296875 130.045898438 389 c 1
 256.03125 389 l 1
EndSplineSet
EndChar

StartChar: uniFE8E
Encoding: 65166 65166 153
GlifName: uniF_E_8E_
Width: 516
VWidth: 2551
GlyphClass: 2
Flags: HW
AnchorPoint: "Anchor-10" 224 1433 basechar 0
AnchorPoint: "Anchor-7" 262 -277 basechar 0
LayerCount: 2
Fore
SplineSet
521.080078125 0 m 6
 476 0 l 2
 275 0 180 105.802734375 180 345 c 2
 180 1273 l 1
 286 1273 l 1
 286 344 l 2
 286 204.684570312 354 120 479 120 c 2
 521.313476562 120 l 6
 542 120 546.765625 92.431640625 546.765625 67 c 6
 546.765625 56 l 6
 546.765625 28.673828125 540 0 521.080078125 0 c 6
EndSplineSet
EndChar

StartChar: uniFEA2
Encoding: 65186 65186 173
GlifName: uniF_E_A_2
Width: 1359
VWidth: 2551
GlyphClass: 2
Flags: HW
AnchorPoint: "Anchor-7" 743.334 -905.653 basechar 0
AnchorPoint: "Anchor-10" 657.5 1002.5 basechar 0
LayerCount: 2
Fore
SplineSet
1362.30859375 0 m 6
 1312 0 l 2
 1112 0 964.85546875 89.6796875 955.9609375 264.559570312 c 2
 954.176757812 299.657226562 l 1
 919.793945312 292.38671875 l 2
 598.096679688 224.366210938 242 90.91015625 242 -222 c 0
 242 -472.099609375 445.4140625 -579 802 -579 c 2
 1184 -579 l 1
 1184 -695 l 1
 790 -695 l 2
 382.30078125 -695 130 -546.828125 130 -225 c 0
 130 101.520507812 389.4375 313.6484375 931.84375 402.393554688 c 2
 1017.25488281 416.368164062 l 1
 941.518554688 458.252929688 l 1
 809.453125 531.2890625 l 2
 720.666992188 579.811523438 637.713867188 607 554 607 c 0
 457.801757812 607 386.732421875 571.369140625 305.348632812 507.498046875 c 2
 256.435546875 468.229492188 l 1
 180.803710938 553.067382812 l 1
 218.390625 585.108398438 l 2
 335.79296875 683.922851562 431.124023438 730 548 730 c 0
 635.920898438 730 725.552734375 703.967773438 819.012695312 650.01171875 c 2
 1008.07421875 540.9765625 l 2
 1069.36816406 505.822265625 1132.17480469 482.448242188 1183 469.252929688 c 1
 1183 337.208007812 l 1
 1144.43945312 331.885742188 1108.54589844 326.583984375 1069.1640625 320.151367188 c 2
 1044 316.041015625 l 1
 1044 290.543945312 l 2
 1044 166.252929688 1154 120 1313 120 c 2
 1362.54199219 120 l 6
 1383 120 1387.99414062 92.431640625 1387.99414062 67 c 6
 1387.99414062 56 l 6
 1387.99414062 28.673828125 1381 0 1362.30859375 0 c 6
EndSplineSet
EndChar

StartChar: uniFEA3
Encoding: 65187 65187 174
GlifName: uniF_E_A_3
Width: 1302
VWidth: 2551
GlyphClass: 2
Flags: HW
AnchorPoint: "Anchor-10" 559 1073 basechar 0
AnchorPoint: "Anchor-7" 425 -272 basechar 0
LayerCount: 2
Fore
SplineSet
-4.5478515625 120 m 6
 320 120 l 2
 463 120 597.92578125 152.540039062 719.280273438 215.09375 c 1
 1009.77832031 351.857421875 l 1
 1062.93652344 376.883789062 l 1
 1011.4921875 405.267578125 l 1
 808.556640625 517.231445312 l 2
 719.7578125 566.793945312 636.397460938 593 553 593 c 0
 456.801757812 593 385.732421875 557.369140625 304.348632812 493.498046875 c 2
 255.435546875 454.229492188 l 1
 179.803710938 539.067382812 l 1
 217.390625 571.108398438 l 2
 334.79296875 669.922851562 430.124023438 716 547 716 c 0
 634.920898438 716 724.552734375 689.967773438 818.012695312 636.01171875 c 2
 1007.07421875 526.9765625 l 2
 1068.36816406 491.822265625 1131.17480469 468.448242188 1182 455.252929688 c 1
 1182 317.461914062 l 1
 780.021484375 114.549804688 l 1
 639.541992188 37.48046875 489 0 322 0 c 2
 -4.314453125 0 l 6
 -25 0 -30 28.9482421875 -30 56 c 6
 -30 67 l 6
 -30 92.6611328125 -24 120 -4.5478515625 120 c 6
EndSplineSet
EndChar

StartChar: uniFEA4
Encoding: 65188 65188 175
GlifName: uniF_E_A_4
Width: 1349
VWidth: 2551
GlyphClass: 2
Flags: HW
AnchorPoint: "Anchor-7" 425 -272 basechar 0
AnchorPoint: "Anchor-10" 559 1073 basechar 0
LayerCount: 2
Fore
SplineSet
1353.08007812 0 m 6
 1236 0 l 2
 1075 0 1000.21972656 68.1044921875 938.5078125 167.791015625 c 2
 923.650390625 191.791015625 l 1
 898.790039062 178.420898438 l 1
 779.6796875 114.362304688 l 2
 639.927734375 37.6923828125 488 0 322 0 c 2
 -4.314453125 0 l 2
 -25 0 -30 28.9482421875 -30 56 c 2
 -30 67 l 2
 -30 92.6611328125 -24 120 -4.5478515625 120 c 2
 320 120 l 2
 463 120 597.974609375 151.54296875 719.369140625 215.135742188 c 1
 1009.77832031 351.857421875 l 1
 1062.93652344 376.883789062 l 1
 1011.4921875 405.267578125 l 1
 808.556640625 517.231445312 l 2
 719.7578125 566.793945312 636.397460938 593 553 593 c 0
 456.801757812 593 385.732421875 557.369140625 304.348632812 493.498046875 c 2
 255.435546875 454.229492188 l 1
 179.803710938 539.067382812 l 1
 217.390625 571.108398438 l 2
 334.79296875 669.922851562 430.124023438 716 547 716 c 0
 634.920898438 716 724.552734375 689.967773438 818.012695312 636.01171875 c 2
 1007.07421875 526.9765625 l 2
 1068.36816406 491.822265625 1131.17480469 468.448242188 1182 455.252929688 c 1
 1182 317.952148438 l 1
 1121.83896339 288.462468903 1059.14810136 260.502614782 1001 230 c 1
 1054.97753906 166.022460938 1126 120 1233 120 c 2
 1353.31347656 120 l 6
 1374 120 1378.765625 92.431640625 1378.765625 67 c 6
 1378.765625 56 l 6
 1378.765625 28.673828125 1372 0 1353.08007812 0 c 6
EndSplineSet
EndChar

StartChar: uniFEA9
Encoding: 65193 65193 180
GlifName: uniF_E_A_9
Width: 1004
VWidth: 2551
GlyphClass: 2
Flags: HW
AnchorPoint: "Anchor-7" 424 -225 basechar 0
AnchorPoint: "Anchor-10" 448 1166 basechar 0
LayerCount: 2
Fore
SplineSet
352 809 m 5
 473 945 l 1029
464 0 m 6
 100 0 l 5
 100 180 l 5
 465 180 l 1030
EndSplineSet
Refer: 23 1583 N 1 0 0 1 0 0 2
EndChar

StartChar: uniFEAA
Encoding: 65194 65194 181
GlifName: uniF_E_A_A_
Width: 1204
VWidth: 2551
GlyphClass: 2
Flags: HW
AnchorPoint: "Anchor-7" 424 -255 basechar 0
AnchorPoint: "Anchor-10" 448 1136 basechar 0
LayerCount: 2
Fore
SplineSet
1207.36425781 0 m 2
 1193 0 l 2
 1069 0 1008.46191406 62.3525390625 899.6015625 171.212890625 c 2
 869.983398438 200.831054688 l 1
 851.475585938 163.255859375 l 2
 806.04296875 71.013671875 685.14453125 0 464 0 c 2
 130 0 l 1
 130 120 l 1
 465 120 l 2
 652.138671875 120 759.297851562 166.85546875 759.297851562 270.186523438 c 0
 759.297851562 335.018554688 716.54296875 403.767578125 654.703125 475.611328125 c 2
 391.92578125 778.7421875 l 1
 472.499023438 869.303710938 l 1
 896.21484375 371.485351562 l 2
 1065 174 1132 120 1195 120 c 6
 1207.59765625 120 l 2
 1226 120 1233.04980469 92.431640625 1233.04980469 67 c 2
 1233.04980469 56 l 2
 1233.04980469 28.673828125 1226 0 1207.36425781 0 c 2
EndSplineSet
EndChar

StartChar: uniFEAE
Encoding: 65198 65198 185
GlifName: uniF_E_A_E_
Width: 883
VWidth: 2551
GlyphClass: 2
Flags: HW
AnchorPoint: "Anchor-10" 511 923 basechar 0
AnchorPoint: "Anchor-7" 297 -649 basechar 0
LayerCount: 2
Fore
SplineSet
886.30859375 0 m 2
 872 0 l 2
 704.581378654 0 686.330078125 50.6845703125 628 116.56640625 c 5
 628 49 l 1
 628 43 l 2
 628 -280.141601562 446.541992188 -462.177734375 85.5830078125 -467.002929688 c 2
 44 -467.580078125 l 1
 44 -353 l 1
 84 -353 l 2
 355.44921875 -353 512 -211.4921875 512 42 c 2
 512 546 l 1
 627 546 l 1
 627 353 l 2
 627 202.512695312 716 120 872 120 c 2
 886.541992188 120 l 2
 907 120 911.994140625 92.431640625 911.994140625 67 c 2
 911.994140625 56 l 2
 911.994140625 28.673828125 905 0 886.30859375 0 c 2
EndSplineSet
PairPos2: "'kern' Horizontal Kerning lookup 15-1" uniFEE7 dx=-178 dy=0 dh=-178 dv=0 dx=0 dy=0 dh=0 dv=0
PairPos2: "'kern' Horizontal Kerning lookup 15-2" uni0698 dx=-40 dy=0 dh=-40 dv=0 dx=0 dy=0 dh=0 dv=0
PairPos2: "'kern' Horizontal Kerning lookup 15-2" uni0648 dx=-30 dy=0 dh=-30 dv=0 dx=0 dy=0 dh=0 dv=0
PairPos2: "'kern' Horizontal Kerning lookup 15-2" uni0624 dx=-30 dy=0 dh=-30 dv=0 dx=0 dy=0 dh=0 dv=0
PairPos2: "'kern' Horizontal Kerning lookup 15-2" uni0632 dx=-30 dy=0 dh=-30 dv=0 dx=0 dy=0 dh=0 dv=0
PairPos2: "'kern' Horizontal Kerning lookup 15-2" uni0631 dx=-30 dy=0 dh=-30 dv=0 dx=0 dy=0 dh=0 dv=0
PairPos2: "'kern' Horizontal Kerning lookup 15-2" uniFB90 dx=-180 dy=0 dh=-180 dv=0 dx=0 dy=0 dh=0 dv=0
PairPos2: "'kern' Horizontal Kerning lookup 15-2" uniFB8E dx=-180 dy=0 dh=-180 dv=0 dx=0 dy=0 dh=0 dv=0
PairPos2: "'kern' Horizontal Kerning lookup 15-2" uni06A9 dx=-180 dy=0 dh=-180 dv=0 dx=0 dy=0 dh=0 dv=0
PairPos2: "'kern' Horizontal Kerning lookup 15-2" uniFEEB dx=-178 dy=0 dh=-178 dv=0 dx=0 dy=0 dh=0 dv=0
PairPos2: "'kern' Horizontal Kerning lookup 15-2" uni0647 dx=-178 dy=0 dh=-178 dv=0 dx=0 dy=0 dh=0 dv=0
PairPos2: "'kern' Horizontal Kerning lookup 15-2" uniFEE3 dx=-178 dy=0 dh=-178 dv=0 dx=0 dy=0 dh=0 dv=0
PairPos2: "'kern' Horizontal Kerning lookup 15-2" uni0645 dx=-178 dy=0 dh=-178 dv=0 dx=0 dy=0 dh=0 dv=0
PairPos2: "'kern' Horizontal Kerning lookup 15-2" uniFEFB dx=-143 dy=0 dh=-143 dv=0 dx=0 dy=0 dh=0 dv=0
PairPos2: "'kern' Horizontal Kerning lookup 15-2" uniFEDF dx=-143 dy=0 dh=-143 dv=0 dx=0 dy=0 dh=0 dv=0
PairPos2: "'kern' Horizontal Kerning lookup 15-2" uni0644 dx=-60 dy=0 dh=-60 dv=0 dx=0 dy=0 dh=0 dv=0
PairPos2: "'kern' Horizontal Kerning lookup 15-2" uniFEDB dx=-180 dy=0 dh=-180 dv=0 dx=0 dy=0 dh=0 dv=0
PairPos2: "'kern' Horizontal Kerning lookup 15-2" uni0643 dx=-143 dy=0 dh=-143 dv=0 dx=0 dy=0 dh=0 dv=0
PairPos2: "'kern' Horizontal Kerning lookup 15-2" uniFED7 dx=-178 dy=0 dh=-178 dv=0 dx=0 dy=0 dh=0 dv=0
PairPos2: "'kern' Horizontal Kerning lookup 15-2" uniFED3 dx=-178 dy=0 dh=-178 dv=0 dx=0 dy=0 dh=0 dv=0
PairPos2: "'kern' Horizontal Kerning lookup 15-2" uni0641 dx=-178 dy=0 dh=-178 dv=0 dx=0 dy=0 dh=0 dv=0
PairPos2: "'kern' Horizontal Kerning lookup 15-2" uniFECF dx=-178 dy=0 dh=-178 dv=0 dx=0 dy=0 dh=0 dv=0
PairPos2: "'kern' Horizontal Kerning lookup 15-2" uniFECB dx=-178 dy=0 dh=-178 dv=0 dx=0 dy=0 dh=0 dv=0
PairPos2: "'kern' Horizontal Kerning lookup 15-2" uniFEC7 dx=-178 dy=0 dh=-178 dv=0 dx=0 dy=0 dh=0 dv=0
PairPos2: "'kern' Horizontal Kerning lookup 15-2" uni0638 dx=-178 dy=0 dh=-178 dv=0 dx=0 dy=0 dh=0 dv=0
PairPos2: "'kern' Horizontal Kerning lookup 15-2" uniFEC3 dx=-178 dy=0 dh=-178 dv=0 dx=0 dy=0 dh=0 dv=0
PairPos2: "'kern' Horizontal Kerning lookup 15-2" uni0637 dx=-178 dy=0 dh=-178 dv=0 dx=0 dy=0 dh=0 dv=0
PairPos2: "'kern' Horizontal Kerning lookup 15-2" uniFEBF dx=-178 dy=0 dh=-178 dv=0 dx=0 dy=0 dh=0 dv=0
PairPos2: "'kern' Horizontal Kerning lookup 15-2" uni0636 dx=-178 dy=0 dh=-178 dv=0 dx=0 dy=0 dh=0 dv=0
PairPos2: "'kern' Horizontal Kerning lookup 15-2" uniFEBB dx=-178 dy=0 dh=-178 dv=0 dx=0 dy=0 dh=0 dv=0
PairPos2: "'kern' Horizontal Kerning lookup 15-2" uni0635 dx=-178 dy=0 dh=-178 dv=0 dx=0 dy=0 dh=0 dv=0
PairPos2: "'kern' Horizontal Kerning lookup 15-2" uniFEB7 dx=-178 dy=0 dh=-178 dv=0 dx=0 dy=0 dh=0 dv=0
PairPos2: "'kern' Horizontal Kerning lookup 15-2" uni0634 dx=-178 dy=0 dh=-178 dv=0 dx=0 dy=0 dh=0 dv=0
PairPos2: "'kern' Horizontal Kerning lookup 15-2" uniFEB3 dx=-178 dy=0 dh=-178 dv=0 dx=0 dy=0 dh=0 dv=0
PairPos2: "'kern' Horizontal Kerning lookup 15-2" uni0633 dx=-178 dy=0 dh=-178 dv=0 dx=0 dy=0 dh=0 dv=0
PairPos2: "'kern' Horizontal Kerning lookup 15-2" uni0630 dx=-178 dy=0 dh=-178 dv=0 dx=0 dy=0 dh=0 dv=0
PairPos2: "'kern' Horizontal Kerning lookup 15-2" uni062F dx=-178 dy=0 dh=-178 dv=0 dx=0 dy=0 dh=0 dv=0
PairPos2: "'kern' Horizontal Kerning lookup 15-2" uniFEA7 dx=-178 dy=0 dh=-178 dv=0 dx=0 dy=0 dh=0 dv=0
PairPos2: "'kern' Horizontal Kerning lookup 15-2" uniFEA3 dx=-178 dy=0 dh=-178 dv=0 dx=0 dy=0 dh=0 dv=0
PairPos2: "'kern' Horizontal Kerning lookup 15-2" uniFE9F dx=-178 dy=0 dh=-178 dv=0 dx=0 dy=0 dh=0 dv=0
PairPos2: "'kern' Horizontal Kerning lookup 15-2" uniFE9B dx=-178 dy=0 dh=-178 dv=0 dx=0 dy=0 dh=0 dv=0
PairPos2: "'kern' Horizontal Kerning lookup 15-2" uni062B dx=-178 dy=0 dh=-178 dv=0 dx=0 dy=0 dh=0 dv=0
PairPos2: "'kern' Horizontal Kerning lookup 15-2" uniFE97 dx=-178 dy=0 dh=-178 dv=0 dx=0 dy=0 dh=0 dv=0
PairPos2: "'kern' Horizontal Kerning lookup 15-2" uni062A dx=-178 dy=0 dh=-178 dv=0 dx=0 dy=0 dh=0 dv=0
PairPos2: "'kern' Horizontal Kerning lookup 15-2" uni0629 dx=-178 dy=0 dh=-178 dv=0 dx=0 dy=0 dh=0 dv=0
PairPos2: "'kern' Horizontal Kerning lookup 15-2" uni0628 dx=-178 dy=0 dh=-178 dv=0 dx=0 dy=0 dh=0 dv=0
PairPos2: "'kern' Horizontal Kerning lookup 15-2" uni0627 dx=-163 dy=0 dh=-163 dv=0 dx=0 dy=0 dh=0 dv=0
PairPos2: "'kern' Horizontal Kerning lookup 15-2" uni0623 dx=-163 dy=0 dh=-163 dv=0 dx=0 dy=0 dh=0 dv=0
PairPos2: "'kern' Horizontal Kerning lookup 15-2" uni0622 dx=-163 dy=0 dh=-163 dv=0 dx=0 dy=0 dh=0 dv=0
PairPos2: "'kern' Horizontal Kerning lookup 15-2" uni0621 dx=-178 dy=0 dh=-178 dv=0 dx=0 dy=0 dh=0 dv=0
PairPos2: "'kern' Horizontal Kerning lookup 15-2" uniFB94 dx=-180 dy=0 dh=-180 dv=0 dx=0 dy=0 dh=0 dv=0
PairPos2: "'kern' Horizontal Kerning lookup 15-2" uniFB92 dx=-180 dy=0 dh=-180 dv=0 dx=0 dy=0 dh=0 dv=0
PairPos2: "'kern' Horizontal Kerning lookup 15-2" uni06AF dx=-180 dy=0 dh=-180 dv=0 dx=0 dy=0 dh=0 dv=0
PairPos2: "'kern' Horizontal Kerning lookup 15-2" uni067E dx=-178 dy=0 dh=-178 dv=0 dx=0 dy=0 dh=0 dv=0
PairPos2: "'kern' Horizontal Kerning lookup 15-2" uni0640 dx=-178 dy=0 dh=-178 dv=0 dx=0 dy=0 dh=0 dv=0
PairPos2: "'kern' Horizontal Kerning lookup 15-2" uniFE8B dx=-178 dy=0 dh=-178 dv=0 dx=0 dy=0 dh=0 dv=0
PairPos2: "'kern' Horizontal Kerning lookup 15-2" uniFB7C dx=-120 dy=0 dh=-120 dv=0 dx=0 dy=0 dh=0 dv=0
PairPos2: "'kern' Horizontal Kerning lookup 15-2" uniFE91 dx=-60 dy=0 dh=-60 dv=0 dx=0 dy=0 dh=0 dv=0
PairPos2: "'kern' Horizontal Kerning lookup 15-5" uni06C0 dx=-178 dy=0 dh=-178 dv=0 dx=0 dy=0 dh=0 dv=0
EndChar

StartChar: uniFEB2
Encoding: 65202 65202 189
GlifName: uniF_E_B_2
Width: 2619
VWidth: 2551
GlyphClass: 2
Flags: HW
AnchorPoint: "Anchor-10" 1775 1034 basechar 0
AnchorPoint: "Anchor-7" 688 -698 basechar 0
LayerCount: 2
Fore
SplineSet
2624.01464844 0 m 2
 2605 0 l 2
 2462 0 2374.82128906 43.3515625 2319.96191406 125.640625 c 2
 2292.35449219 167.051757812 l 1
 2268.62792969 123.301757812 l 2
 2220.54199219 34.6298828125 2171.71386719 0 2063 0 c 0
 1941.85449219 0 1873.40429688 41.26953125 1821.64746094 126.563476562 c 2
 1794.99804688 170.479492188 l 1
 1769.84277344 125.690429688 l 2
 1721.90429688 40.3369140625 1642.140625 0 1521.17871094 0 c 0
 1395.28075531 1.49853033383 1341.27050781 59.97265625 1295 135 c 1
 1295 55 l 1
 1295 22 l 2
 1295 -295.364257812 1119.40722656 -449 744 -449 c 2
 693 -449 l 2
 311.276367188 -449 130 -281.052734375 130 71 c 2
 130 382 l 1
 244 382 l 1
 244 72 l 2
 244 -192.975585938 403.681640625 -330 693 -330 c 2
 744 -330 l 2
 1029.78027344 -330 1191 -214.450195312 1191 17 c 2
 1191 571 l 1
 1307 571 l 1
 1307 367 l 2
 1307 208.994140625 1385.45410156 119.978515625 1527.19921875 119.978515625 c 0
 1659.1796875 119.978515625 1735 203.366210938 1735 342.942382812 c 2
 1735.88574219 574 l 1
 1846.11523438 574 l 1
 1847 344.826171875 l 2
 1848.10253906 202.641601562 1923.05859375 120.990234375 2059.78125 120.9765625 c 0
 2188.92089844 120.9765625 2240 209.08984375 2240 343 c 2
 2240 574 l 1
 2343.11621094 574 l 1
 2344 345.826171875 l 2
 2345.13085938 198.9140625 2438 120 2597 120 c 2
 2624.24804688 120 l 2
 2645 120 2649.70019531 92.431640625 2649.70019531 67 c 2
 2649.70019531 56 l 2
 2649.70019531 28.673828125 2643 0 2624.01464844 0 c 2
EndSplineSet
EndChar

StartChar: uniFEB3
Encoding: 65203 65203 190
GlifName: uniF_E_B_3
Width: 1640
VWidth: 2551
GlyphClass: 2
Flags: HW
AnchorPoint: "Anchor-10" 925 1050 basechar 0
AnchorPoint: "Anchor-7" 846 -271 basechar 0
LayerCount: 2
Fore
SplineSet
-4.5478515625 120 m 6
 90 120 l 2
 254 120 357 195.87109375 357 344 c 2
 357 574 l 1
 468.114257812 574 l 1
 469 341.82421875 l 2
 470.111328125 200.71875 546.913085938 119.98828125 685.696289062 119.98828125 c 0
 818.74609375 119.98828125 896 202.065429688 896 342.942382812 c 2
 896.885742188 574 l 1
 1007.11523438 574 l 1
 1008 344.826171875 l 2
 1009.1015625 202.7578125 1083.88671875 120.98828125 1219.27539062 120.98828125 c 0
 1336.95507812 120.98828125 1395 206.067382812 1395 341 c 2
 1395 606 l 1
 1510 606 l 1
 1510 333 l 2
 1510 112.428710938 1406.93554688 0 1225 0 c 0
 1102.78808594 0 1034.38671875 41.2978515625 982.647460938 126.563476562 c 2
 955.999023438 170.479492188 l 1
 930.842773438 125.690429688 l 2
 882.890625 40.3115234375 803.294921875 0 682 0 c 0
 574.169921875 0 499.147460938 38.86328125 442.220703125 127.245117188 c 2
 417.431640625 165.731445312 l 1
 392.038085938 127.640625 l 2
 337.100585938 45.234375 250 0 89 0 c 2
 -4.314453125 0 l 6
 -25 0 -30 28.9482421875 -30 56 c 6
 -30 67 l 6
 -30 92.6611328125 -24 120 -4.5478515625 120 c 6
EndSplineSet
EndChar

StartChar: uniFEB4
Encoding: 65204 65204 191
GlifName: uniF_E_B_4
Width: 1781
VWidth: 2546
GlyphClass: 2
Flags: HW
AnchorPoint: "Anchor-7" 846 -271 basechar 0
AnchorPoint: "Anchor-10" 925 1050 basechar 0
LayerCount: 2
Fore
SplineSet
1786.01464844 0 m 6
 1767 0 l 2
 1624 0 1536.82128906 43.3515625 1481.96191406 125.640625 c 2
 1454.35449219 167.051757812 l 1
 1430.62792969 123.301757812 l 2
 1382.54199219 34.6298828125 1333.71386719 0 1225 0 c 0
 1102.7890625 0 1034.38769531 41.2978515625 982.647460938 126.563476562 c 2
 955.998046875 170.479492188 l 1
 930.842773438 125.690429688 l 2
 882.890625 40.3125 803.295898438 0 682 0 c 0
 574.168945312 0 499.147460938 38.8623046875 442.220703125 127.245117188 c 2
 417.431640625 165.731445312 l 1
 392.038085938 127.640625 l 2
 337.100585938 45.2353515625 250 0 89 0 c 2
 -4.314453125 0 l 2
 -25 0 -30 28.9482421875 -30 56 c 2
 -30 67 l 2
 -30 92.6611328125 -24 120 -4.5478515625 120 c 2
 90 120 l 2
 254 120 357 195.87109375 357 344 c 2
 357 574 l 1
 468.114257812 574 l 1
 469 341.82421875 l 2
 470.111328125 200.719726562 546.913085938 119.98828125 685.696289062 119.98828125 c 0
 818.747070312 119.98828125 896 202.065429688 896 342.942382812 c 2
 896.885742188 574 l 1
 1007.11523438 574 l 1
 1008 344.826171875 l 2
 1009.11621094 200.899414062 1085.15917969 120.9765625 1221.78125 120.9765625 c 0
 1341.51269531 120.9765625 1397 208.728515625 1397 343 c 2
 1397 574 l 1
 1505.11621094 574 l 1
 1506 345.826171875 l 2
 1507.13085938 198.9140625 1600 120 1759 120 c 2
 1786.24804688 120 l 6
 1807 120 1811.70019531 92.431640625 1811.70019531 67 c 6
 1811.70019531 56 l 6
 1811.70019531 28.673828125 1805 0 1786.01464844 0 c 6
EndSplineSet
EndChar

StartChar: uniFEBA
Encoding: 65210 65210 197
GlifName: uniF_E_B_A_
Width: 2561
VWidth: 2551
GlyphClass: 2
Flags: HW
AnchorPoint: "Anchor-10" 1977 1118 basechar 0
AnchorPoint: "Anchor-7" 688 -698 basechar 0
LayerCount: 2
Fore
SplineSet
2554.515625 0 m 2
 2537 0 l 2
 2408 0 2322.109375 14.3173828125 2272.21289062 64.212890625 c 6
 2254.50878906 81.9169921875 l 5
 2241.92382812 72.666015625 l 2
 2170.52441406 23.2353515625 2078.32714844 0 1958 0 c 2
 1618 0 l 2
 1381.56816275 0 1365.65820312 40.298828125 1295 135.37890625 c 1
 1295 57 l 1
 1295 22 l 2
 1295 -295.364257812 1119.40722656 -449 744 -449 c 2
 693 -449 l 2
 311.276367188 -449 130 -281.052734375 130 71 c 2
 130 382 l 1
 244 382 l 1
 244 72 l 2
 244 -192.975585938 403.681640625 -330 693 -330 c 2
 744 -330 l 2
 1029.78027344 -330 1191 -214.450195312 1191 17 c 2
 1191 571 l 1
 1307 571 l 1
 1307 387 l 2
 1307 248.120117188 1353.04785156 159.211914062 1438.57714844 143.494140625 c 2
 1461.78417969 139.229492188 l 1
 1471.39746094 160.778320312 l 2
 1637.0703125 532.15625 1787.24414062 715 2015 715 c 0
 2215.09570312 715 2375 544.803710938 2375 337 c 0
 2375 268.684570312 2359.26269531 212.221679688 2332.01464844 164.991210938 c 2
 2306.05761719 120 l 1
 2358 120 l 1
 2554.74902344 120 l 2
 2575 120 2580.20117188 92.431640625 2580.20117188 67 c 2
 2580.20117188 56 l 2
 2580.20117188 28.673828125 2573 0 2554.515625 0 c 2
2004 592 m 0
 1846.86230469 592 1713.68945312 436.415039062 1589.66894531 162.369140625 c 2
 1570.49414062 120 l 1
 1617 120 l 1
 1978 120 l 2
 2130.39355469 120 2260 169.235351562 2260 317 c 0
 2260 471.817382812 2145.06640625 592 2004 592 c 0
EndSplineSet
EndChar

StartChar: uniFEBB
Encoding: 65211 65211 198
GlifName: uniF_E_B_B_
Width: 1658
VWidth: 2551
GlyphClass: 2
Flags: HW
AnchorPoint: "Anchor-10" 1127 1118 basechar 0
AnchorPoint: "Anchor-7" 674 -280 basechar 0
LayerCount: 2
Fore
SplineSet
-4.5478515625 120 m 6
 71 120 l 2
 229 120 325 202.514648438 325 356 c 2
 325 573 l 1
 433.119140625 573 l 1
 434 351.880859375 l 2
 434.500976562 226.203125 492.9375 143 597 143 c 2
 616.466796875 143 l 1
 624.397460938 160.778320312 l 2
 790.049804688 532.109375 941.251953125 715 1168 715 c 0
 1368.39746094 715 1528 544.365234375 1528 337 c 0
 1528 114.983398438 1366.97265625 0 1111 0 c 2
 771 0 l 2
 571.30859375 0 460.817382812 45.5634765625 416.850585938 120.223632812 c 2
 416.42578125 120.944335938 l 1
 415.961914062 121.640625 l 1
 413.961914062 124.640625 l 1
 389 162.083007812 l 1
 364.038085938 124.640625 l 2
 310.00390625 43.587890625 228 0 78 0 c 2
 -4.314453125 0 l 6
 -25 0 -30 28.9482421875 -30 56 c 6
 -30 67 l 6
 -30 92.6611328125 -24 120 -4.5478515625 120 c 6
1413 317 m 0
 1413 472.3125 1297.95117188 592 1157 592 c 0
 1000.84570312 592 866.71875 436.48046875 742.668945312 162.369140625 c 2
 723.494140625 120 l 1
 770 120 l 1
 1131 120 l 2
 1283.30761719 120 1413 169.01953125 1413 317 c 0
EndSplineSet
EndChar

StartChar: uniFEBC
Encoding: 65212 65212 199
GlifName: uniF_E_B_C_
Width: 1713
VWidth: 2551
GlyphClass: 2
Flags: HW
AnchorPoint: "Anchor-10" 1127 1118 basechar 0
AnchorPoint: "Anchor-7" 674 -280 basechar 0
LayerCount: 2
Fore
SplineSet
1717.515625 0 m 2
 1690 0 l 2
 1561 0 1473.109375 13.3173828125 1423.21289062 63.212890625 c 6
 1405.50878906 80.9169921875 l 5
 1394.92382812 72.666015625 l 2
 1323.52441406 23.2353515625 1231.32714844 0 1111 0 c 2
 771 0 l 2
 524.494020317 0 458.889174016 57.2497350678 388.862304688 162.290039062 c 1
 363.954101562 124.513671875 l 2
 310.407226562 43.3017578125 228 0 78 0 c 2
 -4.314453125 0 l 2
 -25 0 -30 28.9482421875 -30 56 c 2
 -30 67 l 2
 -30 92.6611328125 -24 120 -4.5478515625 120 c 2
 71 120 l 2
 229 120 325 202.514648438 325 356 c 2
 325 573 l 1
 433.119140625 573 l 1
 434 351.940429688 l 2
 434 225.853515625 492.936523438 143 597 143 c 2
 616.443359375 143 l 1
 624.383789062 160.747070312 l 2
 790.51171875 532.034179688 941.581054688 715 1168 715 c 0
 1368.09570312 715 1528 544.803710938 1528 337 c 0
 1528 268.684570312 1512.26269531 212.221679688 1485.01464844 164.991210938 c 2
 1459.05761719 120 l 1
 1511 120 l 1
 1717.74902344 120 l 2
 1738 120 1743.20117188 92.431640625 1743.20117188 67 c 2
 1743.20117188 56 l 2
 1743.20117188 28.673828125 1736 0 1717.515625 0 c 2
1413 317 m 0
 1413 471.817382812 1298.06640625 592 1157 592 c 0
 1000.84570312 592 866.71875 436.48046875 742.668945312 162.369140625 c 2
 723.494140625 120 l 1
 770 120 l 1
 1131 120 l 2
 1283.39355469 120 1413 169.235351562 1413 317 c 0
EndSplineSet
EndChar

StartChar: uniFEC2
Encoding: 65218 65218 205
GlifName: uniF_E_C_2
Width: 1414
VWidth: 2551
GlyphClass: 2
Flags: HW
AnchorPoint: "Anchor-10" 447 1433 basechar 0
AnchorPoint: "Anchor-7" 610 -268 basechar 0
LayerCount: 2
Fore
SplineSet
1417.515625 0 m 2
 1390 0 l 2
 1261 0 1175.109375 14.3173828125 1125.21289062 64.212890625 c 6
 1107.50878906 81.9169921875 l 5
 1094.92382812 72.666015625 l 2
 1023.52441406 23.2353515625 931.327148438 0 811 0 c 2
 130 0 l 1
 130 120 l 1
 289 120 l 1
 309.073242188 120 l 1
 316.731445312 138.555664062 l 2
 342.008789062 199.803710938 368.46484375 247.846679688 395.833007812 302.583984375 c 2
 399 308.91796875 l 1
 399 316 l 1
 399 1275 l 1
 505 1275 l 1
 505 569 l 1
 505 490.161132812 l 1
 557.411132812 549.056640625 l 2
 651.389648438 654.661132812 751.436523438 715 868 715 c 0
 1068.09570312 715 1228 544.803710938 1228 337 c 0
 1228 268.684570312 1212.26269531 212.221679688 1185.01464844 164.991210938 c 2
 1159.05761719 120 l 1
 1211 120 l 1
 1417.74902344 120 l 2
 1438 120 1443.20117188 92.431640625 1443.20117188 67 c 2
 1443.20117188 56 l 2
 1443.20117188 28.673828125 1436 0 1417.515625 0 c 2
857 592 m 0
 699.862304688 592 566.689453125 436.415039062 442.668945312 162.369140625 c 2
 423.494140625 120 l 1
 470 120 l 1
 831 120 l 2
 983.393554688 120 1113 169.235351562 1113 317 c 0
 1113 471.817382812 998.06640625 592 857 592 c 0
EndSplineSet
EndChar

StartChar: uniFEC3
Encoding: 65219 65219 206
GlifName: uniF_E_C_3
Width: 1230
VWidth: 2551
GlyphClass: 2
Flags: HW
AnchorPoint: "Anchor-10" 327 1433 basechar 0
AnchorPoint: "Anchor-7" 480 -268 basechar 0
LayerCount: 2
Fore
SplineSet
-4.5478515625 120 m 2
 161 120 l 5
 181.073242188 120 l 5
 188.731445312 138.555664062 l 6
 214.008789062 199.803710938 240.46484375 247.846679688 267.833007812 302.583984375 c 6
 271 308.91796875 l 5
 271 316 l 5
 271 1275 l 5
 377 1275 l 5
 377 569 l 5
 377 490.161132812 l 5
 429.411132812 549.056640625 l 6
 523.328125 654.592773438 624.45703125 715 740 715 c 4
 940.095703125 715 1100 544.803710938 1100 337 c 4
 1100 114.811523438 939 0 683 0 c 6
 -4.314453125 0 l 2
 -25 0 -30 28.9482421875 -30 56 c 2
 -30 67 l 2
 -30 92.6611328125 -24 120 -4.5478515625 120 c 2
985 317 m 4
 985 471.817382812 870.06640625 592 729 592 c 4
 572.845703125 592 438.71875 436.48046875 314.668945312 162.369140625 c 6
 295.494140625 120 l 5
 342 120 l 5
 703 120 l 6
 855.393554688 120 985 169.235351562 985 317 c 4
EndSplineSet
EndChar

StartChar: uniFEC4
Encoding: 65220 65220 207
GlifName: uniF_E_C_4
Width: 1286
VWidth: 2551
GlyphClass: 2
Flags: HW
AnchorPoint: "Anchor-10" 327 1433 basechar 0
AnchorPoint: "Anchor-7" 480 -268 basechar 0
LayerCount: 2
Fore
SplineSet
1289.515625 0 m 6
 1262 0 l 6
 1133 0 1047.109375 14.3173828125 997.212890625 64.212890625 c 6
 979.508789062 81.9169921875 l 5
 966.923828125 72.666015625 l 6
 895.524414062 23.2353515625 803 0 683 0 c 6
 -4.314453125 0 l 2
 -25 0 -30 28.9482421875 -30 56 c 2
 -30 67 l 2
 -30 92.6611328125 -24 120 -4.5478515625 120 c 2
 161 120 l 5
 181.073242188 120 l 5
 188.731445312 138.555664062 l 6
 214.008789062 199.803710938 240.46484375 247.846679688 267.833007812 302.583984375 c 6
 271 308.91796875 l 5
 271 316 l 5
 271 1275 l 5
 377 1275 l 5
 377 569 l 5
 377 490.161132812 l 5
 429.411132812 549.056640625 l 6
 523.389648438 654.661132812 623.436523438 715 740 715 c 4
 940.095703125 715 1100 544.803710938 1100 337 c 4
 1100 268.684570312 1084.26269531 212.221679688 1057.01464844 164.991210938 c 6
 1031.05761719 120 l 5
 1083 120 l 5
 1289.74902344 120 l 6
 1310 120 1315.20117188 92.431640625 1315.20117188 67 c 6
 1315.20117188 56 l 6
 1315.20117188 28.673828125 1308 0 1289.515625 0 c 6
729 592 m 4
 571.862304688 592 438.689453125 436.415039062 314.668945312 162.369140625 c 6
 295.494140625 120 l 5
 342 120 l 5
 703 120 l 6
 855.393554688 120 985 169.235351562 985 317 c 4
 985 471.817382812 870.06640625 592 729 592 c 4
EndSplineSet
EndChar

StartChar: uniFECA
Encoding: 65226 65226 213
GlifName: uniF_E_C_A_
Width: 1225
VWidth: 2551
GlyphClass: 2
Flags: HW
AnchorPoint: "Anchor-7" 713 -928 basechar 0
AnchorPoint: "Anchor-10" 654 1082 basechar 0
LayerCount: 2
Fore
SplineSet
1229.08203125 0 m 2
 1126 0 l 2
 944 0 807.868164062 47.3720703125 654.116210938 145.302734375 c 2
 640.077148438 154.245117188 l 1
 625.060546875 147.065429688 l 2
 371.893554688 26.0302734375 242 -116.428710938 242 -248 c 0
 242 -495.098632812 437.627929688 -579 792 -579 c 2
 1084 -579 l 1
 1084 -695 l 1
 780 -695 l 2
 369.891601562 -695 130 -565.568359375 130 -255 c 0
 130 -81.130859375 283.456054688 83.396484375 499.690429688 204.842773438 c 2
 545.642578125 230.651367188 l 1
 524.238743698 242.998359636 227 404.406927531 227 515 c 0
 227 664.973632812 396.58203125 734 662 734 c 0
 927.350585938 734 1096 665.040039062 1096 515 c 0
 1096 404.035743125 759.970099617 219.392745584 739.431640625 207.473632812 c 1
 864.683717342 155.687135733 954.701706891 120 1137 120 c 6
 1229.31542969 120 l 2
 1250 120 1254.76757812 92.431640625 1254.76757812 67 c 2
 1254.76757812 56 l 2
 1254.76757812 28.673828125 1248 0 1229.08203125 0 c 2
976 514 m 0
 976 605.46875 810.1796875 624 660 624 c 0
 512.77734375 624 346 605.509765625 346 514 c 0
 346 424.41592023 657.741945899 276.341746394 661 274.489257812 c 1
 664.535579652 276.499543931 976 424.686597479 976 514 c 0
EndSplineSet
EndChar

StartChar: uniFECB
Encoding: 65227 65227 214
GlifName: uniF_E_C_B_
Width: 1020
VWidth: 2551
GlyphClass: 2
Flags: HW
AnchorPoint: "Anchor-10" 527 1222 basechar 0
AnchorPoint: "Anchor-7" 461 -276 basechar 0
LayerCount: 2
Fore
SplineSet
-4.5478515625 120 m 6
 304 120 l 1
 383.33984375 120 l 1
 323.849609375 172.495117188 l 2
 242.79296875 244.018554688 198 320.543945312 198 421 c 0
 198 634.225585938 348.615234375 786 564 786 c 0
 679.23828125 786 771.413085938 744.825195312 844.721679688 663.25390625 c 1
 799.658203125 581.151367188 l 1
 732.608398438 634.672851562 655.51171875 662 569 662 c 0
 436.013671875 662 313 570.123046875 313 422 c 0
 313 347.05078125 351.784179688 281.125 419.15234375 227.658203125 c 0
 476.069335938 180.905273438 526.010742188 151 574 151 c 0
 603.842773438 151 648.670898438 159.520507812 714.881835938 174.799804688 c 2
 890 216.926757812 l 1
 890 96.4169921875 l 1
 665.8125 31.0283203125 472 0 305 0 c 2
 -4.314453125 0 l 6
 -25 0 -30 28.9482421875 -30 56 c 6
 -30 67 l 6
 -30 92.6611328125 -24 120 -4.5478515625 120 c 6
EndSplineSet
EndChar

StartChar: uniFEDA
Encoding: 65242 65242 229
GlifName: uniF_E_D_A_
Width: 1969
VWidth: 2551
GlyphClass: 2
Flags: HW
AnchorPoint: "Anchor-10" 948.836 1245.23 basechar 0
AnchorPoint: "Anchor-7" 850 -263 basechar 0
LayerCount: 2
Fore
SplineSet
1973.67480469 0 m 2
 1943 0 l 2
 1803.91695168 0 1740.45349785 72.9040804848 1673 174.083007812 c 1
 1602.98020511 69.0546851302 1541.00659694 0 1347 0 c 6
 535 0 l 2
 261.626953125 0 132 131.66796875 132 412 c 2
 132 593 l 1
 247 593 l 1
 247 413 l 2
 247 224.071289062 349.669921875 120 538 120 c 2
 1352 120 l 2
 1521.94824219 120 1609 228.809570312 1609 418 c 2
 1609 1273 l 1
 1716 1273 l 1
 1716 415 l 2
 1716 236.291992188 1793 120 1946.77832031 120 c 2
 1973.90820312 120 l 2
 1994 120 1999.36035156 92.431640625 1999.36035156 67 c 2
 1999.36035156 56 l 2
 1999.36035156 28.673828125 1992 0 1973.67480469 0 c 2
860.8359375 559.23046875 m 0
 941.530273438 559.23046875 1066.8359375 564.413085938 1066.8359375 668.23046875 c 0
 1066.8359375 818.584960938 801.7265625 721.182617188 801.7265625 898.451171875 c 0
 801.7265625 1000.34960938 875.62109375 1068.58300781 1039.765625 1068.58300781 c 0
 1057.86230469 1068.58300781 1077.83496094 1067.50683594 1095.8359375 1065.70214844 c 1
 1095.8359375 1018.84375 l 1
 1079.78613281 1019.84375 1067.23632812 1020.28027344 1052.36425781 1020.28027344 c 0
 970.541992188 1020.28027344 854.8359375 1002.97851562 854.8359375 899.23046875 c 0
 854.8359375 726.000976562 1116.8359375 825.512695312 1116.8359375 687.23046875 c 0
 1116.8359375 548.40234375 1001.01660156 504 846 504 c 0
 812.9296875 504 771.64453125 508.25390625 732.8359375 513.374023438 c 1
 732.8359375 567.819335938 l 1
 774.3359375 563.395507812 817.697265625 559.23046875 860.8359375 559.23046875 c 0
EndSplineSet
EndChar

StartChar: uniFEDB
Encoding: 65243 65243 230
GlifName: uniF_E_D_B_
Width: 938
VWidth: 2551
GlyphClass: 2
Flags: HW
AnchorPoint: "Anchor-10" 276 1358 basechar 0
AnchorPoint: "Anchor-7" 349 -251 basechar 0
LayerCount: 2
Fore
SplineSet
-4.5478515625 120 m 6
 343 120 l 2
 509 120 623 166.801757812 623 284 c 0
 623 337.680664062 578.73828125 401.573242188 503.620117188 486.70703125 c 2
 189.7421875 851.564453125 l 2
 160.005859375 886.131835938 141 922.384765625 141 967.8125 c 0
 141.84375 1035.30371094 172.62890625 1075.83105469 239.322265625 1097.48535156 c 2
 824 1288.62988281 l 1
 824 1172.76757812 l 1
 274.693359375 993.51953125 l 1
 231.837890625 979.53515625 l 1
 261.28515625 945.403320312 l 1
 569.28515625 588.403320312 l 2
 682.435546875 457.252929688 729.021484375 369.068359375 729.021484375 283.68359375 c 0
 729.021484375 102.275390625 611 0 341 0 c 2
 -4.314453125 0 l 6
 -25 0 -30 28.9482421875 -30 56 c 6
 -30 67 l 6
 -30 92.6611328125 -24 120 -4.5478515625 120 c 6
EndSplineSet
EndChar

StartChar: uniFEDC
Encoding: 65244 65244 231
GlifName: uniF_E_D_C_
Width: 1106
VWidth: 2551
GlyphClass: 2
Flags: HW
AnchorPoint: "Anchor-7" 349 -251 basechar 0
AnchorPoint: "Anchor-10" 276 1358 basechar 0
LayerCount: 2
Fore
SplineSet
1109.30859375 0 m 6
 1096 0 l 2
 971 0 864.203125 60.58984375 770.59765625 188.186523438 c 1
 768.961914062 190.640625 l 1
 734.936523438 241.678710938 l 1
 715.5390625 183.487304688 l 2
 675.989257812 64.8349609375 562 0 341 0 c 2
 -4.314453125 0 l 2
 -25 0 -30 28.9482421875 -30 56 c 2
 -30 67 l 2
 -30 92.6611328125 -24 120 -4.5478515625 120 c 2
 343 120 l 2
 509 120 623 166.801757812 623 284 c 0
 623 337.680664062 578.73828125 401.573242188 503.620117188 486.70703125 c 2
 189.7421875 851.565429688 l 2
 158.610351562 887.752929688 141 922.036132812 141 967.8125 c 0
 141.84375 1035.30371094 172.62890625 1075.83105469 239.322265625 1097.48535156 c 2
 824 1288.62988281 l 1
 824 1172.76757812 l 1
 274.693359375 993.51953125 l 1
 231.7734375 979.514648438 l 1
 261.3125 945.372070312 l 1
 832.3125 285.372070312 l 2
 922.309570312 181.34765625 1005 120 1086.77246094 120 c 2
 1109.54199219 120 l 2
 1130 120 1134.99414062 92.431640625 1134.99414062 67 c 2
 1134.99414062 56 l 2
 1134.99414062 28.673828125 1128 0 1109.30859375 0 c 6
EndSplineSet
EndChar

StartChar: uniFEDE
Encoding: 65246 65246 233
GlifName: uniF_E_D_E_
Width: 1387
VWidth: 2551
GlyphClass: 2
Flags: HW
AnchorPoint: "Anchor-10" 599 964.1 basechar 0
AnchorPoint: "Anchor-7" 659 -674 basechar 0
LayerCount: 2
Fore
SplineSet
1393.06347656 0 m 6
 1361 0 l 2
 1285 0 1247.29296875 19.404296875 1209.5234375 51.77734375 c 2
 1160 94.2265625 l 1
 1160 29 l 2
 1160 -280.1953125 1006.95800781 -447 687 -447 c 2
 641 -447 l 2
 294.383789062 -447 130 -281.193359375 130 71 c 2
 130 382 l 1
 244 382 l 1
 244 72 l 2
 244 -187.096679688 382.806640625 -326 641 -326 c 2
 694 -326 l 2
 930.526367188 -326 1055 -191.66015625 1055 56 c 2
 1055 1273 l 1
 1160.96875 1273 l 1
 1160 352.015625 l 2
 1160 204.229492188 1229 120 1354 120 c 2
 1393.296875 120 l 6
 1414.06347656 120 1418.74902344 92.431640625 1418.74902344 67 c 6
 1418.74902344 56 l 6
 1418.74902344 28.673828125 1412.06347656 0 1393.06347656 0 c 6
EndSplineSet
EndChar

StartChar: uniFEDF
Encoding: 65247 65247 234
GlifName: uniF_E_D_F_
Width: 621
VWidth: 2551
GlyphClass: 2
Flags: HW
AnchorPoint: "Anchor-10" 382 1432 basechar 0
AnchorPoint: "Anchor-7" 229 -262 basechar 0
LayerCount: 2
Fore
SplineSet
-4.5478515625 120 m 6
 117 120 l 2
 260 120 341 199.484375 341 341 c 2
 341 1274 l 1
 448 1274 l 1
 448 342 l 2
 448 110.44921875 342 0 116 0 c 2
 -4.314453125 0 l 6
 -25 0 -30 28.9482421875 -30 56 c 6
 -30 67 l 6
 -30 92.6611328125 -24 120 -4.5478515625 120 c 6
EndSplineSet
EndChar

StartChar: uniFEE0
Encoding: 65248 65248 235
GlifName: uniF_E_E_0
Width: 679
VWidth: 2551
GlyphClass: 2
Flags: HW
AnchorPoint: "Anchor-10" 387 1431 basechar 0
AnchorPoint: "Anchor-7" 279 -255 basechar 0
LayerCount: 2
Fore
SplineSet
673.674804688 0 m 6
 659 0 l 2
 543 0 473.174804688 42.3193359375 414.900390625 119.131835938 c 2
 390.340820312 151.504882812 l 1
 366.634765625 118.501953125 l 2
 307.971679688 36.8359375 209 0 110 0 c 2
 -4.314453125 0 l 2
 -25 0 -30 28.9482421875 -30 56 c 2
 -30 67 l 2
 -30 92.6611328125 -24 120 -4.5478515625 120 c 2
 108 120 l 2
 255 120 341 195.915039062 341 337 c 2
 341 1274 l 1
 447 1274 l 1
 447 337 l 2
 447 200.27734375 514 120 669 120 c 2
 673.908203125 120 l 6
 694 120 699.360351562 92.431640625 699.360351562 67 c 6
 699.360351562 56 l 6
 699.360351562 28.673828125 692 0 673.674804688 0 c 6
EndSplineSet
EndChar

StartChar: uniFEE2
Encoding: 65250 65250 237
GlifName: uniF_E_E_2
Width: 1387
VWidth: 2551
GlyphClass: 2
Flags: HW
AnchorPoint: "Anchor-7" 772 -308 basechar 0
AnchorPoint: "Anchor-10" 722 1106 basechar 0
LayerCount: 2
Fore
SplineSet
1392.02832031 0 m 6
 1357 0 l 2
 1259 0 1202.92285156 27.5029296875 1151.21289062 79.212890625 c 2
 1126.94335938 103.482421875 l 1
 1106.13964844 76.1845703125 l 2
 1055.93652344 10.3095703125 967.731445312 -20 866 -20 c 0
 642.823242188 -20 538 90.3525390625 538 336 c 2
 538 524 l 1
 538 554 l 1
 508 554 l 2
 297.78125 554 240 356.481445312 240 129 c 2
 240 -496 l 1
 130 -496 l 1
 130 130 l 2
 130 508.53515625 274.55078125 681 580 681 c 2
 855 681 l 2
 1075.26367188 681 1175 585.486328125 1175 381 c 2
 1175 337 l 2
 1175 203.528320312 1233 120 1353 120 c 2
 1392.26171875 120 l 6
 1413 120 1417.71386719 92.431640625 1417.71386719 67 c 6
 1417.71386719 56 l 6
 1417.71386719 28.673828125 1411 0 1392.02832031 0 c 6
840 569 m 2
 681 569 l 1
 651 569 l 1
 651 539 l 1
 651 338 l 2
 651 175.786132812 723.952148438 79 866 79 c 0
 998.4921875 79 1062 178.368164062 1062 338 c 2
 1062 380 l 2
 1062 504.491210938 977.727539062 569 840 569 c 2
EndSplineSet
EndChar

StartChar: uniFEE3
Encoding: 65251 65251 238
GlifName: uniF_E_E_3
Width: 1000
VWidth: 2551
GlyphClass: 2
Flags: HW
AnchorPoint: "Anchor-10" 546 1048 basechar 0
AnchorPoint: "Anchor-7" 528 -276 basechar 0
LayerCount: 2
Fore
SplineSet
-4.5478515625 120 m 6
 95 120 l 2
 190 120 255.934570312 151.352539062 260.936523438 228.047851562 c 0
 263.990234375 274.87890625 264 305.088867188 264 345 c 0
 264 595.762695312 370.32421875 701 563 701 c 0
 772.075195312 701 870 597.137695312 870 343 c 0
 870 103.114257812 765.208007812 -14 563 -14 c 0
 450.046875 -14 393.576171875 13.8505859375 333.212890625 74.212890625 c 2
 310.174804688 97.251953125 l 1
 289.111328125 72.3935546875 l 2
 247.237304688 22.974609375 190 0 97 0 c 2
 -4.314453125 0 l 6
 -25 0 -30 28.9482421875 -30 56 c 6
 -30 67 l 6
 -30 92.6611328125 -24 120 -4.5478515625 120 c 6
565 100 m 0
 692.629882812 100 759 195.057617188 759 347 c 0
 759 493.830078125 694.23046875 583 564 583 c 0
 435.552734375 583 371 493.658203125 371 347 c 0
 371 195.057617188 437.370117188 100 565 100 c 0
EndSplineSet
EndChar

StartChar: uniFEE4
Encoding: 65252 65252 239
GlifName: uniF_E_E_4
Width: 1061
VWidth: 2551
GlyphClass: 2
Flags: HW
AnchorPoint: "Anchor-7" 528 -276 basechar 0
AnchorPoint: "Anchor-10" 546 1056 basechar 0
LayerCount: 2
Fore
SplineSet
1065.10742188 0 m 6
 1034 0 l 2
 955 0 876.755859375 28.083984375 837.979492188 74.2861328125 c 2
 815.298828125 101.309570312 l 1
 792.271484375 74.5810546875 l 2
 743.314453125 17.755859375 665.971679688 -14 563 -14 c 0
 450.046875 -14 393.576171875 13.8505859375 333.212890625 74.212890625 c 2
 310.174804688 97.251953125 l 1
 289.111328125 72.3935546875 l 2
 247.237304688 22.974609375 190 0 97 0 c 2
 -4.314453125 0 l 2
 -25 0 -30 28.9482421875 -30 56 c 2
 -30 67 l 2
 -30 92.6611328125 -24 120 -4.5478515625 120 c 2
 95 120 l 2
 191 120 255.250976562 151.279296875 260.927734375 227.916015625 c 0
 264.0078125 275.137695312 264 304.9921875 264 345 c 0
 264 595.762695312 370.32421875 701 563 701 c 0
 772.075195312 701 870 597.137695312 870 343 c 0
 870 301.91015625 858.987304688 245.287109375 858.987304688 220.728515625 c 0
 858.987304688 138.673828125 951 120 1032 120 c 2
 1065.34082031 120 l 6
 1086 120 1090.79296875 92.431640625 1090.79296875 67 c 6
 1090.79296875 56 l 6
 1090.79296875 28.673828125 1084 0 1065.10742188 0 c 6
565 100 m 0
 692.629882812 100 759 195.057617188 759 347 c 0
 759 493.830078125 694.23046875 583 564 583 c 0
 435.552734375 583 371 493.658203125 371 347 c 0
 371 195.057617188 437.370117188 100 565 100 c 0
EndSplineSet
EndChar

StartChar: uniFEEA
Encoding: 65258 65258 245
GlifName: uniF_E_E_A_
Width: 1060
VWidth: 2521
GlyphClass: 2
Flags: HW
AnchorPoint: "Anchor-10" 651 1130 basechar 0
AnchorPoint: "Anchor-7" 595 -252 basechar 0
LayerCount: 2
Fore
SplineSet
1019 0 m 6
 871 0 766.91796875 57.1591796875 719.620117188 168.7109375 c 2
 711.865234375 187 l 1
 692 187 l 1
 513 187 l 2
 220.51953125 187 130 299.634765625 130 427 c 0
 130 593.013671875 254.091796875 697.416992188 549.07421875 752.0703125 c 1
 613.721679688 762.374023438 l 1
 642.208007812 766.9140625 l 1
 638.788085938 795.556640625 l 1
 634.211914062 833.881835938 l 1
 732.884765625 849.494140625 l 1
 797.208984375 307.46484375 l 1
 797.30859375 306.62890625 l 1
 797.454101562 305.799804688 l 2
 822.021484375 166.213867188 907 120 1030 120 c 6
 1065.22949219 120 l 6
 1086 120 1090.68164062 92.431640625 1090.68164062 67 c 6
 1090.68164062 56 l 6
 1090.68164062 28.673828125 1084 0 1064.99609375 0 c 6
 1019 0 l 6
693.778320312 333.64453125 m 1
 658.778320312 619.64453125 l 1
 655.043945312 650.15234375 l 1
 624.635742188 645.680664062 l 1
 566.635742188 637.15234375 l 2
 396.443359375 612.125 234 560.771484375 234 440 c 0
 234 327.657226562 351.28125 300 498 300 c 2
 664 300 l 1
 697.895507812 300 l 1
 693.778320312 333.64453125 l 1
EndSplineSet
EndChar

StartChar: uniFEEB
Encoding: 65259 65259 246
GlifName: uniF_E_E_B_
Width: 1309
VWidth: 2551
GlyphClass: 2
Flags: HW
AnchorPoint: "Anchor-10" 640 1162 basechar 0
AnchorPoint: "Anchor-7" 559 -311 basechar 0
LayerCount: 2
Fore
SplineSet
-4.5478515625 120 m 6
 291 120 l 1
 334.232421875 120 l 1
 377.465820312 120 l 1
 284.912033138 173.010290615 206 259.614805054 206 401 c 0
 206 597.466796875 343.524414062 731 510 731 c 0
 587.9296875 731 657.044921875 700.990234375 708.840820312 651.909179688 c 0
 768.048828125 595.806640625 809.501953125 513.749023438 809.501953125 424.202148438 c 0
 809.501953125 293.380859375 700.046875 195.474609375 637.162109375 152.829101562 c 2
 612.766601562 136.286132812 l 1
 588.37109375 119.7421875 l 1
 616.104492188 109.7578125 l 1
 643.837890625 99.7734375 l 2
 747.94921875 62.2939453125 839.586914062 54 901 54 c 0
 1006.77832031 54 1074 151.508789062 1074 229 c 0
 1074 358.239257812 894.212890625 558.025390625 733.188476562 691.534179688 c 0
 720.9765625 701.659179688 708.581054688 711.6015625 696.767578125 720.798828125 c 1
 758.391601562 811.134765625 l 1
 1049.64746094 571.727539062 1179 380.634765625 1179 230 c 0
 1179 63.45703125 1066.3359375 -56 916 -56 c 0
 778.2421875 -56 645.081054688 -21.6220703125 483.475585938 52.283203125 c 2
 478.518554688 54.5498046875 l 1
 473.5625 56.81640625 l 1
 468.306640625 55.3720703125 l 1
 463.05078125 53.927734375 l 2
 334.014648438 18.4677734375 215 0 90 0 c 2
 -4.314453125 0 l 6
 -25 0 -30 28.9482421875 -30 56 c 6
 -30 67 l 6
 -30 92.6611328125 -24 120 -4.5478515625 120 c 6
490.990234375 174.0859375 m 2
 603.228515625 218.274414062 712.830078125 311.552734375 712.830078125 435.6171875 c 0
 712.830078125 533.045898438 644.428710938 631 532 631 c 0
 398.888671875 631 308 532.16796875 308 399 c 0
 308 303.617289582 367.762116991 211.253586536 481.0625 170.177734375 c 1
 486.025390625 172.131835938 l 1
 490.990234375 174.0859375 l 2
EndSplineSet
EndChar

StartChar: uniFEEC
Encoding: 65260 65260 247
GlifName: uniF_E_E_C_
Width: 991
VWidth: 2551
GlyphClass: 2
Flags: HW
AnchorPoint: "Anchor-7" 576 -667 basechar 0
AnchorPoint: "Anchor-10" 558 1048 basechar 0
LayerCount: 2
Fore
SplineSet
996.080078125 0 m 6
 776 0 l 1
 718.319335938 0 l 1
 751.438476562 -47.2255859375 l 2
 795.306640625 -109.778320312 817 -175.94140625 817 -244 c 0
 817 -382.770507812 733.564453125 -487 594 -487 c 0
 369.079101562 -487 249 -216.643554688 249 -30 c 2
 249 0 l 1
 219 0 l 1
 -4.314453125 0 l 2
 -25 0 -30 28.9482421875 -30 56 c 2
 -30 67 l 2
 -30 92.6611328125 -24 120 -4.5478515625 120 c 2
 219 120 l 1
 249 120 l 1
 249 150 l 1
 271.704101562 447.73828125 348.606445312 712 574 712 c 0
 741.442382812 712 819 552.779296875 819 403 c 0
 819 322.647460938 793.759765625 227.72265625 753.038085938 166.640625 c 2
 721.944335938 120 l 1
 778 120 l 1
 996.313476562 120 l 6
 1017 120 1021.765625 92.431640625 1021.765625 67 c 6
 1021.765625 56 l 6
 1021.765625 28.673828125 1015 0 996.080078125 0 c 6
723 -225 m 0
 723 -74.4912109375 629.942382812 0 482 0 c 2
 377 0 l 1
 347 0 l 1
 347 -30 l 2
 347 -162.37109375 423.959960938 -379 590 -379 c 0
 679.00390625 -379 723 -310.25390625 723 -225 c 0
722 377 m 0
 722 480.791992188 679.5703125 601 566 601 c 0
 399.337890625 601 363.829101562 309.280273438 347.173828125 155.224609375 c 2
 347 153.6171875 l 1
 347 152 l 1
 347 150 l 1
 347 120 l 1
 377 120 l 1
 379.125976562 120 l 1
 498.23046875 121.000976562 l 2
 645.752929688 122.135742188 722 217.431640625 722 377 c 0
EndSplineSet
EndChar

StartChar: uniFEEE
Encoding: 65262 65262 249
GlifName: uniF_E_E_E_
Width: 916
VWidth: 2551
GlyphClass: 2
Flags: HW
AnchorPoint: "Anchor-7" 394 -649 basechar 0
AnchorPoint: "Anchor-10" 444 1024 basechar 0
LayerCount: 2
Fore
SplineSet
750 -30 m 2
 750 -298.477539062 571.93359375 -467 202 -467 c 2
 158 -467 l 1
 158 -351 l 1
 196 -351 l 2
 471.22265625 -351 638.877929688 -241.828125 640 -32.080078125 c 2
 640 -30 l 1
 640 0 l 1
 610 0 l 1
 448 0 l 2
 229.504882812 0 129.993164062 97.748046875 129.993164062 309.083007812 c 0
 129.993164062 520.088867188 234.4375 665 447 665 c 0
 640.5859375 665 750 538.3671875 750 318 c 2
 750 150 l 1
 750 120 l 1
 780 120 l 1
 910.547851562 120 l 1
 913.649414062 109.794921875 916 92.431640625 916 67 c 2
 916 56 l 2
 916 37.15234375 914.088867188 11.2001953125 910.836914062 0 c 1
 780 0 l 1
 750 0 l 1
 750 -30 l 2
237 313 m 0
 237 188.598632812 315.0859375 120 447 120 c 2
 611 120 l 1
 641 120 l 1
 641 150 l 1
 641 319 l 2
 641 467.157226562 563.219726562 553 443 553 c 0
 306.401367188 553 237 452.65234375 237 313 c 0
EndSplineSet
EndChar

StartChar: uniFEFB
Encoding: 65275 65275 262
GlifName: uniF_E_F_B_
Width: 1145
VWidth: 2551
GlyphClass: 3
Flags: HW
AnchorPoint: "Anchor-9" 248 1413 baselig 1
AnchorPoint: "Anchor-9" 910 1433 baselig 0
AnchorPoint: "Anchor-6" 848 -238 baselig 0
AnchorPoint: "Anchor-6" 243 -245 baselig 1
LayerCount: 2
Fore
SplineSet
189 1225 m 1
 295 1225 l 1
 295 281 l 1
 189 281 l 1
 189 1225 l 1
972 362 m 2
 972 114.555664062 859.26953125 0 620 0 c 2
 188 0 l 1
 188 120 l 1
 627 120 l 2
 781.479492188 120 865 215.15234375 865 380 c 2
 865 1274 l 1
 972 1274 l 1
 972 362 l 2
EndSplineSet
PairPos2: "'kern' Horizontal Kerning lookup 15-6" uni063A dx=-60 dy=0 dh=-60 dv=0 dx=0 dy=0 dh=0 dv=0
PairPos2: "'kern' Horizontal Kerning lookup 15-6" uni0639 dx=-60 dy=0 dh=-60 dv=0 dx=0 dy=0 dh=0 dv=0
LCarets2: 1 0
Ligature2: "'rlig' Required Ligatures in Arabic lookup 16 subtable" uniFEDF uniFE8E
EndChar

StartChar: uniFEFC
Encoding: 65276 65276 263
GlifName: uniF_E_F_C_
Width: 1203
VWidth: 2551
GlyphClass: 3
Flags: HW
AnchorPoint: "Anchor-6" 848 -238 baselig 0
AnchorPoint: "Anchor-9" 910 1433 baselig 0
AnchorPoint: "Anchor-6" 243 -245 baselig 1
AnchorPoint: "Anchor-9" 248 1413 baselig 1
LayerCount: 2
Fore
SplineSet
1206.36425781 0 m 6
 1183 0 l 2
 1037 0 963.910718987 75.515062263 906.78125 162.64453125 c 1
 854.021188983 57.1244092124 750.519569859 0 637 0 c 2
 188 0 l 1
 188 120 l 1
 620 120 l 2
 783.458007812 120 865 236.282226562 865 434 c 2
 865 1275 l 1
 971 1275 l 1
 971 433 l 2
 971 243.12890625 1012 120 1185 120 c 2
 1206.59765625 120 l 6
 1227 120 1232.04980469 92.431640625 1232.04980469 67 c 6
 1232.04980469 56 l 6
 1232.04980469 28.673828125 1225 0 1206.36425781 0 c 6
189 1225 m 1
 295 1225 l 1
 295 281 l 1
 189 281 l 1
 189 1225 l 1
EndSplineSet
PairPos2: "'kern' Horizontal Kerning lookup 15-6" uni063A dx=-60 dy=0 dh=-60 dv=0 dx=0 dy=0 dh=0 dv=0
PairPos2: "'kern' Horizontal Kerning lookup 15-6" uni0639 dx=-60 dy=0 dh=-60 dv=0 dx=0 dy=0 dh=0 dv=0
LCarets2: 1 0
Ligature2: "'rlig' Required Ligatures in Arabic lookup 16 subtable" uniFEE0 uniFE8E
EndChar

StartChar: arabic_dot
Encoding: 65536 -1 264
GlifName: arabic_dot
Width: 204
VWidth: 2629
GlyphClass: 2
Flags: HW
LayerCount: 2
Fore
SplineSet
-16.7157287525 89 m 1
 102 207.715728753 l 1
 220.715728753 89 l 1
 102 -29.7157287525 l 1
 -16.7157287525 89 l 1
EndSplineSet
EndChar

StartChar: arabic_2dots
Encoding: 65537 -1 265
GlifName: arabic_2dots
Width: 527
VWidth: 2629
GlyphClass: 2
Flags: HW
LayerCount: 2
Fore
SplineSet
324.186233068 89 m 1
 439.04936158 204.666367173 l 1
 554.715728753 89 l 1
 439.04936158 -26.6663671727 l 1
 324.186233068 89 l 1
-27.7157287525 89 m 1
 87.9506384202 204.666367173 l 1
 202.813766932 89 l 1
 87.9506384202 -26.6663671727 l 1
 -27.7157287525 89 l 1
EndSplineSet
EndChar

StartChar: arabic_3dots
Encoding: 65538 -1 266
GlifName: arabic_3dots
Width: 527
VWidth: 2629
GlyphClass: 2
Flags: HW
LayerCount: 2
Fore
SplineSet
157.085815384 344.488494926 m 1
 263.93887742 450.566890395 l 1
 370.017085707 344.488682107 l 1
 263.938690239 237.635620072 l 1
 157.085815384 344.488494926 l 1
328.585815384 98.5115050739 m 1
 435.490234375 205.415924065 l 1
 542.394653366 98.5115050739 l 1
 435.490234375 -7.61787502025 l 1
 328.585815384 98.5115050739 l 1
-15.394653366 98.5115050739 m 1
 91.509765625 205.415924065 l 1
 198.414184616 98.5115050739 l 1
 91.509765625 -7.61787502025 l 1
 -15.394653366 98.5115050739 l 1
EndSplineSet
EndChar

StartChar: arabic_3dots_a
Encoding: 65539 -1 267
GlifName: arabic_3dots_a
Width: 527
VWidth: 2629
GlyphClass: 2
Flags: HW
LayerCount: 2
Fore
SplineSet
157.085815384 -141.488494926 m 1
 263.938690239 -34.6356200714 l 1
 370.017085707 -141.488682107 l 1
 263.93887742 -247.566890395 l 1
 157.085815384 -141.488494926 l 1
328.585815384 104.488494926 m 1
 435.490234375 210.617875021 l 1
 542.394653366 104.488494926 l 1
 435.490234375 -2.41592406509 l 1
 328.585815384 104.488494926 l 1
-15.3946533661 104.488494926 m 1
 91.509765625 210.617875021 l 1
 198.414184616 104.488494926 l 1
 91.509765625 -2.41592406509 l 1
 -15.3946533661 104.488494926 l 1
EndSplineSet
EndChar

StartChar: uni066E.fina
Encoding: 65540 -1 268
GlifName: uni066E_.fina
Width: 2016
VWidth: 2551
GlyphClass: 2
Flags: HW
AnchorPoint: "Anchor-10" 680 1207 basechar 0
AnchorPoint: "Anchor-7" 680 -248 basechar 0
LayerCount: 2
Fore
SplineSet
2020.30859375 0 m 2
 2001 0 l 2
 1831.85362853 0 1778.10578699 59.6677414146 1714.54980469 159.385742188 c 1
 1639.66807746 55.7000890874 1589.18317467 0 1357 0 c 6
 532 0 l 2
 258.626953125 0 130 130.586914062 130 412 c 2
 130 583 l 1
 245 583 l 1
 245 413 l 2
 245 224.125 347.588867188 120 535 120 c 2
 1359 120 l 2
 1548.97851562 120 1652 182.779296875 1652 345 c 2
 1652 573 l 1
 1763 573 l 1
 1763 345 l 2
 1763 201.5 1835 120 2000 120 c 2
 2020.54199219 120 l 2
 2041 120 2045.99414062 92.431640625 2045.99414062 67 c 2
 2045.99414062 56 l 2
 2045.99414062 28.673828125 2039 0 2020.30859375 0 c 2
EndSplineSet
EndChar

StartChar: uni06A1.fina
Encoding: 65543 -1 269
GlifName: uni06A_1.fina
Width: 2044
VWidth: 2551
GlyphClass: 2
Flags: HW
AnchorPoint: "Anchor-10" 475 1333 basechar 0
AnchorPoint: "Anchor-7" 600 -300 basechar 0
LayerCount: 2
Fore
SplineSet
2048.67480469 0 m 6
 1914 0 l 2
 1807 0 1674.078125 22.671875 1572.20214844 77.42578125 c 2
 1558.07519531 85.017578125 l 1
 1543.91503906 77.4873046875 l 2
 1442.31933594 23.4619140625 1327.71386719 0 1201 0 c 2
 534 0 l 2
 260.626953125 0 132 130.586914062 132 412 c 2
 132 583 l 1
 247 583 l 1
 247 413 l 2
 247 224.071289062 349.669921875 120 538 120 c 2
 1314 120 l 1
 1386.03027344 120 l 1
 1335.29589844 171.130859375 l 2
 1277.79492188 229.080078125 1238 299.063476562 1238 401 c 0
 1238 584.380859375 1379.92773438 726 1561 726 c 0
 1741.0390625 726 1883 587.458984375 1883 402 c 0
 1883 299.116210938 1843.07324219 227.668945312 1786.75488281 171.181640625 c 2
 1735.72753906 120 l 1
 1808 120 l 1
 2048.90820312 120 l 6
 2069 120 2074.36035156 92.431640625 2074.36035156 67 c 6
 2074.36035156 56 l 6
 2074.36035156 28.673828125 2067 0 2048.67480469 0 c 6
1775 400 m 0
 1775 515.8359375 1682.921875 611 1560 611 c 0
 1438.39550781 611 1344 522.494140625 1344 400 c 0
 1344 282.569335938 1443.91210938 189 1560 189 c 0
 1675.91113281 189 1775 282.20703125 1775 400 c 0
EndSplineSet
EndChar

StartChar: uni06A1.init
Encoding: 65544 -1 270
GlifName: uni06A_1.init
Width: 898
VWidth: 2551
GlyphClass: 2
Flags: HW
AnchorPoint: "Anchor-10" 467 1360 basechar 0
AnchorPoint: "Anchor-7" 502 -237 basechar 0
LayerCount: 2
Fore
SplineSet
-4.5478515625 120 m 6
 365 120 l 2
 587 120 665 176.545898438 665 298 c 2
 665 323 l 1
 665 355.90625 l 1
 632.234375 352.872070312 l 2
 578.470703125 347.89453125 528.95703125 344 482 344 c 0
 252.780273438 344 156 417.686523438 156 596 c 0
 156 788.15234375 264.114257812 920 466 920 c 0
 671.690429688 920 768 807.810546875 768 624 c 2
 768 305 l 2
 768 99.7314453125 665 0 363 0 c 2
 -4.314453125 0 l 6
 -25 0 -30 28.9482421875 -30 56 c 6
 -30 67 l 6
 -30 92.6611328125 -24 120 -4.5478515625 120 c 6
468 809 m 0
 339.123046875 809 261 731.51171875 261 607 c 0
 261 481.057617188 358.483398438 458 490 458 c 0
 539.711914062 458 589.458007812 462.25390625 634.8984375 468 c 1
 665 468 l 1
 665 498 l 1
 665 627 l 2
 665 735.0234375 592.541992188 809 468 809 c 0
EndSplineSet
EndChar

StartChar: uni06A1.medi
Encoding: 65545 -1 271
GlifName: uni06A_1.medi
Width: 1022
VWidth: 2551
GlyphClass: 2
Flags: HW
AnchorPoint: "Anchor-10" 535 1144 basechar 0
AnchorPoint: "Anchor-7" 505 -237 basechar 0
LayerCount: 2
Fore
SplineSet
1025.28222656 0 m 2
 891 0 l 2
 784 0 651.078125 22.6728515625 549.202148438 77.42578125 c 2
 535.075195312 85.017578125 l 1
 520.915039062 77.4873046875 l 2
 419.33984375 23.47265625 304 0 178 0 c 2
 -4.314453125 0 l 2
 -25 0 -30 28.9482421875 -30 56 c 2
 -30 67 l 2
 -30 92.6611328125 -24 120 -4.5478515625 120 c 2
 291 120 l 1
 363.030273438 120 l 1
 312.295898438 171.130859375 l 2
 254.795898438 229.079101562 215 299.063476562 215 401 c 0
 215 584.379882812 356.927734375 726 538 726 c 0
 718.0390625 726 860 587.458984375 860 402 c 0
 860 299.116210938 820.072265625 227.668945312 763.754882812 171.181640625 c 2
 712.727539062 120 l 1
 785 120 l 5
 1025.515625 120 l 2
 1046 120 1050.96777344 92.431640625 1050.96777344 67 c 2
 1050.96777344 56 l 2
 1050.96777344 28.673828125 1044 0 1025.28222656 0 c 2
752 400 m 0
 752 515.834960938 659.921875 611 537 611 c 0
 415.395507812 611 321 522.495117188 321 400 c 0
 321 282.569335938 420.913085938 189 537 189 c 0
 652.911132812 189 752 282.20703125 752 400 c 0
EndSplineSet
EndChar

StartChar: uni066F.fina
Encoding: 65546 -1 272
GlifName: uni066F_.fina
Width: 1466
VWidth: 2551
GlyphClass: 2
Flags: HW
AnchorPoint: "Anchor-10" 398 1020 basechar 0
AnchorPoint: "Anchor-7" 515 -730 basechar 0
LayerCount: 2
Fore
SplineSet
1471.54199219 0 m 6
 1331 0 l 1
 1301 0 l 1
 1301 -30 l 1
 1301 -96 l 2
 1301 -359.614257812 1059.24023438 -449 744 -449 c 2
 693 -449 l 2
 311.276367188 -449 130 -281.052734375 130 71 c 2
 130 382 l 1
 244 382 l 1
 244 72 l 2
 244 -192.975585938 403.681640625 -330 693 -330 c 2
 744 -330 l 2
 993.888671875 -330 1190.97949219 -268.10546875 1191.00097656 -96 c 2
 1191 -30 l 1
 1191 0 l 1
 1161 0 l 1
 999 0 l 2
 780.504882812 0 680.993164062 97.748046875 680.993164062 309.083007812 c 0
 680.993164062 520.088867188 785.4375 665 998 665 c 0
 1191.5859375 665 1301 538.3671875 1301 318 c 2
 1301 150 l 1
 1301 120 l 1
 1331 120 l 1
 1471.77539062 120 l 6
 1492 120 1497.22753906 92.431640625 1497.22753906 67 c 6
 1497.22753906 56 l 6
 1497.22753906 28.673828125 1490 0 1471.54199219 0 c 6
788 313 m 0
 788 188.598632812 866.0859375 120 998 120 c 2
 1162 120 l 1
 1192 120 l 1
 1192 150 l 1
 1192 319 l 2
 1192 467.157226562 1114.21972656 553 994 553 c 0
 857.401367188 553 788 452.65234375 788 313 c 0
EndSplineSet
EndChar

StartChar: arabic_gaf_bar
Encoding: 65550 -1 273
GlifName: arabic_gaf_bar
Width: 657
VWidth: 2389
GlyphClass: 2
Flags: HW
LayerCount: 2
Fore
SplineSet
577 1729 m 5
 17 1541 l 5
 17 1626 l 5
 577 1814 l 5
 577 1729 l 5
EndSplineSet
EndChar

StartChar: guillemotleft
Encoding: 171 171 283
GlifName: guillemotleft
Width: 957
VWidth: 2046
Flags: HW
LayerCount: 2
Fore
SplineSet
398.98046875 847 m 1
 324.475585938 717.61328125 250 580.1640625 250 427 c 0
 250 272.21875 325.44921875 132.705078125 398.981445312 5 c 1
 315.110351562 5 l 1
 218.765625 151.353515625 150 288.720703125 150 427 c 0
 150 602.828125 234.068359375 717.033203125 314.752929688 847 c 1
 398.98046875 847 l 1
774.3046875 847 m 1
 704.331054688 730.973632812 626 607.892578125 626 427 c 0
 626 272.21875 701.44921875 132.705078125 774.981445312 5 c 1
 691.0234375 5 l 1
 608.036132812 128.668945312 526 244.567382812 526 427 c 0
 526 602.828125 610.068359375 717.033203125 690.752929688 847 c 1
 774.3046875 847 l 1
EndSplineSet
EndChar

StartChar: guillemotright
Encoding: 187 187 284
GlifName: guillemotright
Width: 957
VWidth: 2046
Flags: HW
LayerCount: 2
Fore
SplineSet
558.025390625 847 m 1
 642.166015625 847 l 1
 735.919921875 693.1796875 807 566.509765625 807 426 c 0
 807 288.74609375 737.380859375 150.057617188 641.889648438 5 c 1
 558.03125 5 l 1
 632.331054688 133.920898438 707 271.400390625 707 426 c 0
 707 580.233398438 631.791015625 718.943359375 558.025390625 847 c 1
182.025390625 847 m 1
 266.166015625 847 l 1
 359.919921875 693.1796875 431 566.509765625 431 426 c 0
 431 288.74609375 361.380859375 150.057617188 265.889648438 5 c 1
 182.03125 5 l 1
 256.331054688 133.920898438 331 271.400390625 331 426 c 0
 331 580.233398438 255.791015625 718.943359375 182.025390625 847 c 1
EndSplineSet
EndChar

StartChar: NameMe.302
Encoding: 65562 -1 293
GlifName: N_ameM_e.302
Width: 599
VWidth: 2551
Flags: HW
AnchorPoint: "Anchor-10" 313 1243 basechar 0
AnchorPoint: "Anchor-7" 231 -325 basechar 0
LayerCount: 2
Fore
SplineSet
604 0 m 6
 569 0 l 2
 449 0 361.032007308 72.737339307 302.78125 161.64453125 c 1
 249.806500876 55.6950330013 146.11147638 0 30 0 c 2
 -4.314453125 0 l 2
 -25 0 -30 28.9482421875 -30 56 c 2
 -30 67 l 2
 -30 92.6611328125 -24 120 -4.5478515625 120 c 2
 28 120 l 2
 182 120 261 226.298828125 261 407 c 2
 261 1064 l 1
 367 1064 l 1
 367 406 l 2
 367 262.510742188 421 120 579 120 c 2
 604.233398438 120 l 6
 625 120 629.685546875 92.431640625 629.685546875 67 c 6
 629.685546875 56 l 6
 629.685546875 28.673828125 623 0 604 0 c 6
EndSplineSet
EndChar

StartChar: NameMe.303
Encoding: 65563 -1 294
GlifName: N_ameM_e.303
Width: 570
VWidth: 2551
Flags: HW
LayerCount: 2
Fore
SplineSet
-4.5478515625 120 m 6
 67 120 l 2
 210 120 291 199.484375 291 341 c 2
 291 1254 l 1
 398 1254 l 1
 398 337 l 2
 398 105.827148438 293 0 66 0 c 2
 -4.314453125 0 l 6
 -25 0 -30 28.9482421875 -30 56 c 6
 -30 67 l 6
 -30 92.6611328125 -24 120 -4.5478515625 120 c 6
EndSplineSet
EndChar

StartChar: NameMe.65564
Encoding: 65564 -1 297
GlifName: N_ameM_e.65564
Width: 516
VWidth: 2551
Flags: HW
AnchorPoint: "Anchor-10" 247 1281 basechar 0
AnchorPoint: "Anchor-7" 273 -277 basechar 0
LayerCount: 2
Fore
SplineSet
521.080078125 0 m 6
 477 0 l 2
 276 0 181 105.802734375 181 345 c 2
 181 1073 l 1
 290 1073 l 1
 290 344 l 2
 290 205.436523438 354 120 480 120 c 2
 521.313476562 120 l 6
 542.080078125 120 546.765625 92.431640625 546.765625 67 c 6
 546.765625 56 l 6
 546.765625 28.673828125 540.080078125 0 521.080078125 0 c 6
EndSplineSet
EndChar

StartChar: NameMe.65565
Encoding: 65565 -1 298
GlifName: N_ameM_e.65565
Width: 867
VWidth: 1530
Flags: HW
LayerCount: 2
Fore
SplineSet
295.588753066 -152.081009486 m 1
 320.971278802 -159.854417175 353.916445691 -163 395 -163 c 2
 447 -163 l 2
 588.328888405 -163 677 -134.69139235 677 -60 c 2
 677 -54 l 2
 677 -15.7853558292 645.086369278 2 604 2 c 2
 512 2 l 2
 450.709222242 2 425 27.4354585653 425 86 c 2
 425 124 l 2
 425 205.776995953 464.821099387 259.556237261 548.016147678 288.863583818 c 0
 577.008317734 299.151128031 613.385146167 305 655 305 c 2
 755.128752983 305 l 1
 755.870132293 219 l 1
 631 219 l 2
 555.072235181 219 505.223505414 189.545820783 504 127.147044691 c 2
 504 97 l 1
 504 82 l 1
 519 82 l 1
 605 82 l 2
 711.651553274 82 756 43.2359638236 756 -34 c 2
 756 -50 l 2
 756 -177.855318469 659.021137612 -246 442 -246 c 2
 394 -246 l 2
 344.591588932 -246 304.65482598 -241.29188036 275.914514789 -233.692664559 c 1
 295.588753066 -152.081009486 l 1
EndSplineSet
EndChar

StartChar: uni060D
Encoding: 1549 1549 299
Width: 828
VWidth: 4006
Flags: HW
LayerCount: 2
Fore
SplineSet
630.03125 1389.95019531 m 1
 715.53125 1364.24023438 l 1
 178.96875 -203.950195312 l 1
 93.46875 -178.240234375 l 1
 630.03125 1389.95019531 l 1
EndSplineSet
EndChar

StartChar: NameMe.65541
Encoding: 65541 -1 300
Width: 677
VWidth: 2551
Flags: HW
AnchorPoint: "Anchor-10" 400 1188 basechar 0
AnchorPoint: "Anchor-7" 407 -174 basechar 0
LayerCount: 2
Fore
SplineSet
-4.5478515625 120 m 6
 198 120 l 2
 343 120 430 179.215820312 430 343 c 2
 430 607 l 1
 544 607 l 1
 544 342 l 2
 544 108.375976562 435 0 197 0 c 2
 -4.314453125 0 l 6
 -25 0 -30 28.9482421875 -30 56 c 6
 -30 67 l 6
 -30 92.6611328125 -24 120 -4.5478515625 120 c 6
EndSplineSet
EndChar

StartChar: NameMe.65542
Encoding: 65542 -1 301
Width: 807
VWidth: 2551
Flags: HW
AnchorPoint: "Anchor-10" 360 1094 basechar 0
AnchorPoint: "Anchor-7" 339 -179 basechar 0
LayerCount: 2
Fore
SplineSet
810.30859375 0 m 6
 791 0 l 2
 652 0 582.487304688 39.9453125 528.045898438 122.513671875 c 2
 504.879882812 157.6484375 l 1
 479.221679688 124.291015625 l 2
 415.75390625 41.7841796875 329 0 166 0 c 2
 -4.314453125 0 l 2
 -25 0 -30 28.9482421875 -30 56 c 2
 -30 67 l 2
 -30 92.6611328125 -24 120 -4.5478515625 120 c 2
 171 120 l 2
 351 120 442 197.162109375 442 345 c 2
 442 573 l 1
 553 573 l 1
 553 345 l 2
 553 201.5 625 120 790 120 c 2
 810.541992188 120 l 6
 831 120 835.994140625 92.431640625 835.994140625 67 c 6
 835.994140625 56 l 6
 835.994140625 28.673828125 829 0 810.30859375 0 c 6
EndSplineSet
EndChar

StartChar: uniFBFD.compact
Encoding: 65575 -1 321
Width: 1381
VWidth: 2551
Flags: HW
AnchorPoint: "Anchor-7" 721.902 -680.086 basechar 0
AnchorPoint: "Anchor-10" 681.6 623.22 basechar 0
LayerCount: 2
Fore
SplineSet
1375.05859375 0 m 6
 1332 0 l 1
 1302 0 l 1
 1302 -30 l 1
 1302 -109 l 2
 1302 -323.958984375 1142.26074219 -451 783 -451 c 2
 687 -451 l 2
 306.651367188 -451 130 -281.458007812 130 69 c 2
 130 379.828125 l 1
 245 379.170898438 l 1
 245 70 l 2
 245 -193.525390625 400.293945312 -331 687 -331 c 2
 783 -331 l 2
 959.993164062 -331 1189 -304.080078125 1189 -102 c 2
 1189 -30 l 1
 1189 0 l 1
 1159 0 l 1
 906 0 l 2
 895.02734375 0 876.329101562 9.1572265625 860.978515625 65.76171875 c 0
 854.659179688 89.3525390625 851.791015625 109.124023438 851.651367188 120 c 1
 1375.29199219 120 l 6
 1396 120 1400.74414062 92.431640625 1400.74414062 67 c 6
 1400.74414062 56 l 6
 1400.74414062 28.673828125 1394 0 1375.05859375 0 c 6
EndSplineSet
EndChar

StartChar: uniFECC.compact
Encoding: 65579 -1 324
Width: 1113
VWidth: 2950
Flags: HW
AnchorPoint: "Anchor-7" 585 -267 basechar 0
AnchorPoint: "Anchor-10" 608 1071 basechar 0
LayerCount: 2
Fore
SplineSet
1116.89453125 0 m 2
 1009 0 l 2
 913.440263282 0 777.03125 14.380859375 631.846679688 97.068359375 c 2
 617.247070312 105.383789062 l 1
 602.529296875 97.279296875 l 2
 450.036132812 13.3115234375 327 0 146 0 c 2
 -4.314453125 0 l 2
 -25 0 -30 28.9482421875 -30 56 c 2
 -30 67 l 2
 -30 92.6611328125 -24 120 -4.5478515625 120 c 2
 145 120 l 2
 313.704540264 120 415 132 544.877929688 163.033203125 c 5
 516.311523438 179.166015625 183.9921875 356.696148127 183.9921875 473.420898438 c 0
 183.9921875 623.604492188 353.637695312 692 619 692 c 0
 884.294921875 692 1053.0078125 623.670898438 1053.0078125 473.420898438 c 0
 1053.0078125 359.701659791 717.442342822 177.578676775 692.104492188 162.803710938 c 5
 809 128 890.910745462 120 1015 120 c 2
 1117.12792969 120 l 2
 1138 120 1142.58007812 92.431640625 1142.58007812 67 c 2
 1142.58007812 56 l 2
 1142.58007812 28.673828125 1136 0 1116.89453125 0 c 2
632.81640625 240.9140625 m 1
 632.81640625 240.9140625 933.0234375 388.065429688 933.0234375 472.098632812 c 0
 933.0234375 563.659179688 767.154296875 582 617 582 c 0
 469.80078125 582 302.9765625 563.701171875 302.9765625 472.098632812 c 0
 302.9765625 387.655273438 603.18359375 240.9140625 603.18359375 240.9140625 c 1
 618 232.499023438 l 1
 632.81640625 240.9140625 l 1
EndSplineSet
EndChar

